<svg id="Group_10" data-name="Group 10" xmlns="http://www.w3.org/2000/svg" xmlns:xlink="http://www.w3.org/1999/xlink" width="101.192" height="68.607" viewBox="0 0 101.192 68.607">
  <defs>
    <clipPath id="clip-path">
      <path id="Path_8" data-name="Path 8" d="M4415.215,109.282h-80.758l-20.434-68.607h80.757Z" transform="translate(-4314.023 -40.675)" fill="none" stroke="#171717" stroke-width="1"/>
    </clipPath>
  </defs>
  <g id="Group_9" data-name="Group 9" transform="translate(0 0)" clip-path="url(#clip-path)">
    <g id="Group_6" data-name="Group 6" transform="translate(-11.014 49.139)">
      <path id="Path_5" data-name="Path 5" d="M4296.88,117.163c9.049,0,9.049,7.116,18.1,7.116s9.05-7.116,18.1-7.116,9.051,7.116,18.1,7.116,9.052-7.116,18.1-7.116,9.051,7.116,18.1,7.116,9.051-7.116,18.1-7.116,9.05,7.116,18.1,7.116" transform="translate(-4296.88 -114.163)" fill="none" stroke="#171717" stroke-miterlimit="10" stroke-width="2.25"/>
    </g>
    <g id="Group_7" data-name="Group 7" transform="translate(-11.014 29.816)">
      <path id="Path_6" data-name="Path 6" d="M4296.88,87.085c9.049,0,9.049,7.116,18.1,7.116s9.05-7.116,18.1-7.116,9.051,7.116,18.1,7.116,9.052-7.116,18.1-7.116,9.051,7.116,18.1,7.116,9.051-7.116,18.1-7.116,9.05,7.116,18.1,7.116" transform="translate(-4296.88 -87.085)" fill="none" stroke="#171717" stroke-miterlimit="10" stroke-width="2.25"/>
    </g>
    <g id="Group_8" data-name="Group 8" transform="translate(-10.014 7.492)">
      <path id="Path_7" data-name="Path 7" d="M4296.88,57.006c9.049,0,9.049,7.116,18.1,7.116s9.05-7.116,18.1-7.116,9.051,7.116,18.1,7.116,9.052-7.116,18.1-7.116,9.051,7.116,18.1,7.116,9.051-7.116,18.1-7.116,9.05,7.116,18.1,7.116" transform="translate(-4296.88 -57.006)" fill="none" stroke="#171717" stroke-miterlimit="10" stroke-width="2.25"/>
    </g>
  </g>
</svg>
