<?xml version="1.0" encoding="UTF-8" standalone="no"?><!DOCTYPE svg PUBLIC "-//W3C//DTD SVG 1.1//EN" "http://www.w3.org/Graphics/SVG/1.1/DTD/svg11.dtd"><svg width="100%" height="100%" viewBox="0 0 52 37" version="1.1" xmlns="http://www.w3.org/2000/svg" xmlns:xlink="http://www.w3.org/1999/xlink" xml:space="preserve" xmlns:serif="http://www.serif.com/" style="fill-rule:evenodd;clip-rule:evenodd;stroke-linejoin:round;stroke-miterlimit:2;"><path id="hamburger-icon" serif:id="hamburger icon" d="M49.023,36.008l-46.048,0c-1.075,0 -1.983,-1.082 -1.983,-2.362c0,-1.282 0.908,-2.363 1.983,-2.363l46.048,0c1.074,0 1.982,1.081 1.982,2.363c0,1.279 -0.905,2.359 -1.982,2.362Zm0,-15.144l-46.048,0c-1.075,0 -1.983,-1.081 -1.983,-2.363c0,-1.281 0.908,-2.362 1.983,-2.362l46.048,0c1.074,0 1.982,1.081 1.982,2.362c0,1.28 -0.905,2.36 -1.982,2.363Zm0,-15.143l-46.048,0c-1.075,0 -1.983,-1.083 -1.983,-2.363c0,-1.281 0.908,-2.363 1.983,-2.363l46.048,0c1.074,0 1.982,1.082 1.982,2.363c0,1.278 -0.905,2.36 -1.982,2.363Z" style="fill:#fff;"/></svg>