<svg id="Component_12_1" data-name="Component 12 – 1" xmlns="http://www.w3.org/2000/svg" width="168.186" height="32" viewBox="0 0 168.186 32">
  <g id="Group_420" data-name="Group 420" transform="translate(12.093 4.602)">
    <g id="Group_417" data-name="Group 417">
      <path id="Path_195" data-name="Path 195" d="M-7.947,11.379a3.659,3.659,0,0,0,3.6,3.818c2.655,0,2.98-1.544,2.98-5.581,0-3.71-.407-5.578-2.79-5.578-2.248,0-3.79,2.22-3.79,4.2ZM-10.225-3.492h-1.868v-.434h1.868A2.863,2.863,0,0,0-7.947-4.6V6.367h.052A4.142,4.142,0,0,1-4.157,3.6c3.251,0,5.39,3.358,5.39,6.012,0,3.169-2.193,6.013-5.58,6.013a4,4,0,0,1-3.548-2.3h-.052V15.3h-4.146V14.87h1.868Z" fill="#212121"/>
      <path id="Path_196" data-name="Path 196" d="M5.323,4.633H3.048V4.2H5.323A3.145,3.145,0,0,0,7.6,3.6V6.8h.054c.326-1.219,1.275-3.2,3.495-3.2a1.651,1.651,0,0,1,1.788,1.6,1.185,1.185,0,0,1-1.245,1.272A1.039,1.039,0,0,1,10.5,5.284a1.3,1.3,0,0,1,.6-1.165.6.6,0,0,0-.378-.082C9.6,4.037,7.6,5.8,7.6,9.32v5.551h2.466V15.3H3.048v-.433H5.323Z" fill="#212121"/>
      <path id="Path_197" data-name="Path 197" d="M22.88,8.562c0-2.358-.108-4.524-3.142-4.524S16.6,6.2,16.6,8.562v2.11c0,2.357.109,4.525,3.142,4.525s3.142-2.168,3.142-4.525ZM19.738,3.6A5.8,5.8,0,0,1,25.48,9.616,5.748,5.748,0,1,1,14,9.616,5.8,5.8,0,0,1,19.738,3.6" fill="#212121"/>
      <path id="Path_198" data-name="Path 198" d="M36.422,8.562c0-2.358-.108-4.524-3.14-4.524S30.14,6.2,30.14,8.562v2.11c0,2.357.107,4.525,3.142,4.525s3.14-2.168,3.14-4.525ZM33.282,3.6a5.8,5.8,0,0,1,5.743,6.012,5.749,5.749,0,1,1-11.486,0A5.8,5.8,0,0,1,33.282,3.6" fill="#212121"/>
      <path id="Path_199" data-name="Path 199" d="M42.544-3.492H40.4v-.434h2.14A2.852,2.852,0,0,0,44.819-4.6V10.483l4.334-4.17A3.077,3.077,0,0,0,50.1,5.067c0-.3-.381-.434-1.221-.434h-.92V4.2h5.716v.433h-.949a2.816,2.816,0,0,0-2.274,1.085L47.447,8.562l4.252,5.28c.6.733.812,1.028,1.328,1.028h1.38V15.3h-6.8V14.87h1.949l-3.792-4.685-.947.895v3.79h1.9V15.3H40.4V14.87h2.14Z" fill="#212121"/>
      <path id="Path_200" data-name="Path 200" d="M57.739-3.492H55.571v-.434h2.168A2.847,2.847,0,0,0,60.013-4.6V14.87h2.169V15.3H55.571V14.87h2.168Z" fill="#212121"/>
      <path id="Path_201" data-name="Path 201" d="M66.406-2.652a1.386,1.386,0,0,1,1.381,1.38A1.386,1.386,0,0,1,66.406.109a1.387,1.387,0,0,1-1.381-1.381,1.386,1.386,0,0,1,1.381-1.38M65.268,4.633H63.1V4.2h2.166a3.15,3.15,0,0,0,2.276-.6V14.871h2.168V15.3H63.1v-.433h2.166Z" fill="#212121"/>
      <path id="Path_202" data-name="Path 202" d="M72.664,4.633h-2.14V4.2h2.14c1.3,0,1.787,0,2.273-.6V6.367h.055A4.78,4.78,0,0,1,79.029,3.6c2.9,0,3.711,1.463,3.711,3.061v8.206h2.139V15.3H78.324v-.433h2.141V6.013c0-1.488-.733-1.976-1.6-1.976-2.273,0-3.439,2.276-3.928,3.2v7.638H77V15.3H70.524v-.433h2.14Z" fill="#212121"/>
      <path id="Path_203" data-name="Path 203" d="M93.573,7.369c0-1.734-.46-3.331-2.247-3.331-1.9,0-2.465,1.6-2.465,3.331v.759h4.523a.172.172,0,0,0,.189-.191ZM88.861,11.1c-.028,1.924.243,4.091,2.789,4.091a4.285,4.285,0,0,0,4.334-3.738h.433a4.743,4.743,0,0,1-4.767,4.171c-3.17,0-5.39-2.437-5.39-6.012,0-2.626,2.113-6.014,5.066-6.014,3.2,0,4.847,3.576,4.847,4.715a.217.217,0,0,1-.243.245H88.861Z" fill="#212121"/>
      <path id="Path_204" data-name="Path 204" d="M-9.613,23.649a1.258,1.258,0,0,0,.66.179,1.333,1.333,0,0,0,1.4-1.46c0-1.124-.515-1.615-1.538-1.615h-.523Zm-.877-2.9h-.851v-.138H-8.89c1.279,0,2.266.439,2.266,1.676,0,1.213-1.142,1.677-2.183,1.677a2.149,2.149,0,0,1-.806-.147v2.706h.875v.138h-2.6v-.138h.851Z" fill="#212121"/>
      <path id="Path_205" data-name="Path 205" d="M-4.432,20.615h2.605v.138h-.912v4.494a1.372,1.372,0,0,0,1.47,1.419A1.711,1.711,0,0,0,.689,24.809v-3.47c0-.465-.144-.586-.524-.586h-.48v-.138H1.677v.138H1.29c-.369,0-.462.154-.462.592v3.568c0,1.342-.964,1.89-2.106,1.89-1.419,0-2.339-.336-2.339-1.7V20.753h-.815Z" fill="#212121"/>
      <path id="Path_206" data-name="Path 206" d="M5.184,26.527h.722c.9,0,1.383-.559,1.383-1.563,0-.963-.662-1.442-1.64-1.442H5.184Zm0-3.145H5.75c.784,0,1.479-.173,1.479-1.339,0-.455-.344-1.29-1.6-1.29H5.184Zm-.876-2.629H3.49v-.138H6.112c1.28,0,1.994.645,1.994,1.342,0,1.313-1.109,1.434-1.729,1.495v.017c.938.076,1.892.481,1.892,1.572a1.691,1.691,0,0,1-1.84,1.624H3.49v-.138h.818Z" fill="#212121"/>
      <path id="Path_207" data-name="Path 207" d="M11.448,20.753H10.59v-.138h2.6v.138h-.86v5.774H13.4c1.652,0,2.167-.215,2.167-1.838H15.7v1.976H10.59v-.138h.858Z" fill="#212121"/>
    </g>
    <path id="Path_208" data-name="Path 208" d="M18.04,20.615v.139h.781v5.774H18.04v.138h2.441v-.138H19.7V20.754h.784v-.139Z" fill="#212121"/>
    <g id="Group_418" data-name="Group 418">
      <path id="Path_209" data-name="Path 209" d="M27.543,22.575h-.137a1.98,1.98,0,0,0-1.891-1.96c-1.528,0-1.736,1.9-1.736,3.025s.208,3.026,1.736,3.026a2.07,2.07,0,0,0,1.891-2.141h.137v2.038h-.137c0-.173-.085-.43-.292-.43-.258,0-.713.669-1.6.669A2.987,2.987,0,0,1,22.8,23.64a2.989,2.989,0,0,1,2.715-3.163c.876,0,1.255.628,1.573.628.242,0,.318-.161.318-.369h.137Z" fill="#212121"/>
      <path id="Path_210" data-name="Path 210" d="M36.242,23.487h.43c1.014,0,1.607-.355,1.607-1.351,0-.687-.233-1.383-1.453-1.383h-.584Zm-.876-2.734h-.86v-.138h2.638c.988,0,2.062.223,2.062,1.521,0,1.049-1.211,1.323-1.838,1.4v.016c.988.088,1.512.3,1.642,1.435l.12,1.049c.06.507.3.543.446.543a.91.91,0,0,0,.353-.086l.051.11a2.01,2.01,0,0,1-.7.113c-1.047,0-1.108-.559-1.229-1.548l-.061-.516c-.058-.541-.213-1.03-1.185-1.03h-.558v2.9h.878v.138H34.506v-.138h.86Z" fill="#212121"/>
      <path id="Path_211" data-name="Path 211" d="M42.643,20.753h-.755v-.138h4.579l.106,1.461h-.14c0-.987-.652-1.323-1.564-1.323h-1.35v2.769h.645c.894,0,.979-.544.979-1.1h.139v2.287h-.139c0-.654-.085-1.05-.987-1.05h-.637v2.871H44.7c1.392,0,2.063-.163,2.063-1.625H46.9v1.763h-5.01v-.138h.755Z" fill="#212121"/>
      <path id="Path_212" data-name="Path 212" d="M50.267,20.753h-.859v-.138H52v.138h-.86v5.774h1.073c1.652,0,2.167-.215,2.167-1.838h.137v1.976H49.408v-.138h.859Z" fill="#212121"/>
      <path id="Path_213" data-name="Path 213" d="M59.066,21.964h-.018l-.843,2.6H59.95Zm.929,2.742h-1.84L57.8,25.788a1.845,1.845,0,0,0-.129.523c0,.122.1.216.377.216H58.5v.139H56.728v-.139H57c.268,0,.38-.024.542-.506l1.848-5.544h.1l2.089,6.05h.712v.139H59.772v-.139h.84Z" fill="#212121"/>
      <path id="Path_214" data-name="Path 214" d="M65.89,20.753h-.183c-1.527,0-1.873.232-1.873,1.641H63.7V20.615h5.259v1.779h-.138c0-1.409-.343-1.641-1.864-1.641h-.189v5.774h.885v.138H65v-.138h.886Z" fill="#212121"/>
    </g>
    <path id="Path_215" data-name="Path 215" d="M71.131,20.615v.139h.782v5.774h-.782v.138h2.44v-.138h-.782V20.754h.782v-.139Z" fill="#212121"/>
    <g id="Group_419" data-name="Group 419">
      <path id="Path_216" data-name="Path 216" d="M78.607,26.666c1.529,0,1.735-1.9,1.735-3.026s-.206-3.025-1.735-3.025-1.735,1.9-1.735,3.025.205,3.026,1.735,3.026m0-6.19a2.99,2.99,0,0,1,2.717,3.164,2.748,2.748,0,1,1-5.432,0,2.988,2.988,0,0,1,2.715-3.164" fill="#212121"/>
      <path id="Path_217" data-name="Path 217" d="M84.5,21.028h-.019v5.009c0,.414.138.49.532.49h.346v.138h-1.84v-.138h.292c.4,0,.534-.076.534-.49V20.754h-.826v-.139h1.805L88.567,25.1h.016V21.217c0-.351-.068-.463-.446-.463h-.4v-.139h1.813v.139h-.377c-.38,0-.448.112-.448.463v5.5h-.11Z" fill="#212121"/>
      <path id="Path_218" data-name="Path 218" d="M91.815,24.541h.138a1.864,1.864,0,0,0,1.881,2.124,1.3,1.3,0,0,0,1.418-1.3c0-.9-.463-1.161-1.451-1.316-1.35-.214-1.986-.438-1.986-1.881a1.582,1.582,0,0,1,1.607-1.695c.886,0,1.22.523,1.512.523.2,0,.225-.212.249-.323h.137v1.8h-.137a1.782,1.782,0,0,0-1.761-1.866,1.184,1.184,0,0,0-1.245,1.273c0,.774.29.944,1.717,1.2,1.255.222,1.772.625,1.772,1.744A1.775,1.775,0,0,1,93.8,26.8c-.86,0-1.316-.447-1.633-.447-.208,0-.215.215-.215.361h-.138Z" fill="#212121"/>
    </g>
  </g>
  <g id="Group_423" data-name="Group 423" transform="translate(12.093 4.602)">
    <g id="Group_421" data-name="Group 421">
      <path id="Path_219" data-name="Path 219" d="M116.574,1.63,111.2,3.123l-1.109-4.267,8.063-2.56h3.627v30.08h-5.205Z" fill="#212121"/>
      <path id="Path_220" data-name="Path 220" d="M125.32,22.323l3.242-3.8c2.39,2.219,4.907,3.585,7.681,3.585,3.583,0,5.93-2.048,5.93-5.163v-.085c0-3.03-2.56-4.95-6.187-4.95a12.757,12.757,0,0,0-5.5,1.323l-3.157-2.091.854-14.634h17.877V1.161H132.7l-.469,7a12.7,12.7,0,0,1,4.736-.854c5.8,0,10.41,3.072,10.41,9.387v.085c0,6.1-4.48,10.112-11.093,10.112A15.306,15.306,0,0,1,125.32,22.323Z" fill="#212121"/>
    </g>
    <g id="Group_422" data-name="Group 422">
      <path id="Path_221" data-name="Path 221" d="M153.369-1.17l-1.491-2.445h1.234l.8,1.424.81-1.424h1.211l-1.485,2.429V.293h-1.083Z" fill="#212121"/>
      <path id="Path_222" data-name="Path 222" d="M152.389,3.085h3.143V4h-2.071v.6h1.876v.854h-1.876v.62h2.1v.921h-3.171Z" fill="#212121"/>
      <path id="Path_223" data-name="Path 223" d="M153.385,9.757h1.044l1.664,3.936h-1.161l-.279-.7H153.14l-.28.7h-1.133Zm.949,2.39-.435-1.105-.441,1.105Z" fill="#212121"/>
      <path id="Path_224" data-name="Path 224" d="M152.246,16.485h1.848a1.731,1.731,0,0,1,1.273.419,1.221,1.221,0,0,1,.347.91v.011a1.239,1.239,0,0,1-.8,1.206l.932,1.362H154.6l-.787-1.183h-.48v1.183h-1.084Zm1.8,1.876c.363,0,.581-.178.581-.463v-.011c0-.313-.229-.469-.587-.469h-.714v.943Z" fill="#212121"/>
      <path id="Path_225" data-name="Path 225" d="M152.138,26.513l.6-.72a2.025,2.025,0,0,0,1.267.469c.3,0,.453-.1.453-.268v-.011c0-.168-.129-.252-.665-.38-.832-.19-1.474-.424-1.474-1.223v-.011c0-.726.575-1.251,1.513-1.251a2.458,2.458,0,0,1,1.608.52l-.542.764a1.923,1.923,0,0,0-1.094-.385c-.262,0-.39.106-.39.251v.012c0,.178.133.257.68.379.894.2,1.452.486,1.452,1.217v.012c0,.8-.631,1.273-1.58,1.273A2.74,2.74,0,0,1,152.138,26.513Z" fill="#212121"/>
    </g>
  </g>
  <rect id="Rectangle_151" data-name="Rectangle 151" width="0.744" height="31.628" transform="translate(116.649 0.372)" fill="#212121"/>
</svg>
