<svg xmlns="http://www.w3.org/2000/svg" width="21.472" height="21.472" viewBox="0 0 21.472 21.472">
  <path id="Path_28" data-name="Path 28" d="M-1122.591,570.993a2.22,2.22,0,0,1-.671,1.63,2.218,2.218,0,0,1-1.629.671h-4.074v-8.483h2.876l.431-3.259h-3.307V559.49a1.909,1.909,0,0,1,.287-1.15,1.663,1.663,0,0,1,1.295-.431h1.725v-2.876a18.011,18.011,0,0,0-2.492-.144,4.115,4.115,0,0,0-3.044,1.126,4.245,4.245,0,0,0-1.126,3.139v2.4h-2.923v3.259h2.923v8.483h-9.441a2.218,2.218,0,0,1-1.63-.671,2.219,2.219,0,0,1-.671-1.63V554.123a2.218,2.218,0,0,1,.671-1.629,2.218,2.218,0,0,1,1.63-.671h16.871a2.218,2.218,0,0,1,1.629.671,2.219,2.219,0,0,1,.671,1.629Z" transform="translate(1144.063 -551.822)" fill="#fff"/>
</svg>
