<svg xmlns="http://www.w3.org/2000/svg" width="21.472" height="21.472" viewBox="0 0 21.472 21.472">
  <path id="Path_30" data-name="Path 30" d="M-993.22,558.1q.048,1.342.048,4.457t-.072,4.482a9.046,9.046,0,0,1-.407,2.373,5.592,5.592,0,0,1-1.318,2.085,5.59,5.59,0,0,1-2.085,1.318,9.049,9.049,0,0,1-2.373.407q-1.366.071-4.481.072t-4.481-.072a7.832,7.832,0,0,1-2.373-.456,5.109,5.109,0,0,1-2.085-1.27,5.59,5.59,0,0,1-1.318-2.085,9.026,9.026,0,0,1-.407-2.373q-.072-1.366-.072-4.482t.072-4.481a9.024,9.024,0,0,1,.407-2.373,5.586,5.586,0,0,1,1.318-2.085,5.586,5.586,0,0,1,2.085-1.318,9.04,9.04,0,0,1,2.373-.408q1.366-.072,4.481-.072t4.481.072a9.036,9.036,0,0,1,2.373.408,5.584,5.584,0,0,1,2.085,1.318,5.588,5.588,0,0,1,1.318,2.085A9.759,9.759,0,0,1-993.22,558.1Zm-2.3,10.784a10.076,10.076,0,0,0,.383-2.588q.048-1.054.048-2.972v-1.534q0-1.965-.048-2.971a9.606,9.606,0,0,0-.383-2.588,3.459,3.459,0,0,0-2.061-2.061,9.617,9.617,0,0,0-2.588-.384q-1.054-.047-2.972-.048h-1.534q-1.917,0-2.971.048a10.092,10.092,0,0,0-2.588.384,3.46,3.46,0,0,0-2.061,2.061,9.634,9.634,0,0,0-.384,2.588q-.047,1.054-.048,2.971v1.534q0,1.917.048,2.972a10.106,10.106,0,0,0,.384,2.588,3.634,3.634,0,0,0,2.061,2.061,10.094,10.094,0,0,0,2.588.383q1.054.048,2.971.048h1.534q1.966,0,2.972-.048a9.619,9.619,0,0,0,2.588-.383A3.635,3.635,0,0,0-995.52,568.884Zm-8.388-11.838a5.364,5.364,0,0,1,2.756.743,5.531,5.531,0,0,1,2.013,2.013,5.366,5.366,0,0,1,.743,2.756,5.366,5.366,0,0,1-.743,2.756,5.529,5.529,0,0,1-2.013,2.013,5.363,5.363,0,0,1-2.756.743,5.363,5.363,0,0,1-2.756-.743,5.53,5.53,0,0,1-2.013-2.013,5.366,5.366,0,0,1-.743-2.756,5.366,5.366,0,0,1,.743-2.756,5.532,5.532,0,0,1,2.013-2.013A5.363,5.363,0,0,1-1003.908,557.046Zm0,9.107a3.463,3.463,0,0,0,2.54-1.055,3.463,3.463,0,0,0,1.055-2.54,3.462,3.462,0,0,0-1.055-2.54,3.463,3.463,0,0,0-2.54-1.055,3.462,3.462,0,0,0-2.54,1.055,3.462,3.462,0,0,0-1.055,2.54,3.463,3.463,0,0,0,1.055,2.54A3.462,3.462,0,0,0-1003.908,566.153Zm7.046-9.346a1.244,1.244,0,0,0-.384-.911,1.244,1.244,0,0,0-.911-.383,1.245,1.245,0,0,0-.911.383,1.245,1.245,0,0,0-.383.911,1.246,1.246,0,0,0,.383.911,1.245,1.245,0,0,0,.911.383,1.167,1.167,0,0,0,.887-.383A1.5,1.5,0,0,0-996.862,556.807Z" transform="translate(1014.644 -551.822)" fill="#fff"/>
</svg>
