<svg xmlns="http://www.w3.org/2000/svg" width="24.539" height="19.938" viewBox="0 0 24.539 19.938">
  <path id="Path_29" data-name="Path 29" d="M-1060.307,558.93a14.207,14.207,0,0,1-1.677,6.662,13.686,13.686,0,0,1-4.841,5.416,13.826,13.826,0,0,1-7.812,2.252,13.964,13.964,0,0,1-7.717-2.252q.528.048,1.2.048a9.976,9.976,0,0,0,6.279-2.157,4.681,4.681,0,0,1-2.948-.983,5.006,5.006,0,0,1-1.749-2.468,9.053,9.053,0,0,0,.91.048,6.4,6.4,0,0,0,1.342-.144,5.073,5.073,0,0,1-2.876-1.773,4.826,4.826,0,0,1-1.151-3.163v-.1a4.743,4.743,0,0,0,2.253.671,5.577,5.577,0,0,1-1.629-1.821,4.829,4.829,0,0,1-.624-2.421,4.82,4.82,0,0,1,.719-2.516,13.88,13.88,0,0,0,4.578,3.738,13.921,13.921,0,0,0,5.775,1.534,7.032,7.032,0,0,1-.1-1.15,4.99,4.99,0,0,1,.67-2.516,4.931,4.931,0,0,1,1.822-1.845,4.861,4.861,0,0,1,2.492-.671,4.8,4.8,0,0,1,2.037.432,5.708,5.708,0,0,1,1.654,1.15,10.231,10.231,0,0,0,3.21-1.2,4.993,4.993,0,0,1-2.2,2.78,10.806,10.806,0,0,0,2.876-.815,11.068,11.068,0,0,1-2.54,2.636A2.906,2.906,0,0,1-1060.307,558.93Z" transform="translate(1082.354 -553.322)" fill="#fff"/>
</svg>
