<svg xmlns="http://www.w3.org/2000/svg" width="26.169" height="18.405" viewBox="0 0 26.169 18.405">
  <path id="Path_31" data-name="Path 31" d="M-925.885,557.7a21.685,21.685,0,0,1,.479,3.93l.048,2.4-.048,2.4a21.93,21.93,0,0,1-.479,3.978,3.344,3.344,0,0,1-.863,1.438,3.322,3.322,0,0,1-1.486.862,34.077,34.077,0,0,1-5.847.48l-4.362.048-4.361-.048a34.073,34.073,0,0,1-5.847-.48,3.324,3.324,0,0,1-1.486-.862A3.343,3.343,0,0,1-951,570.4a21.914,21.914,0,0,1-.479-3.978l-.048-2.4q0-1.055.048-2.4A21.67,21.67,0,0,1-951,557.7a3.323,3.323,0,0,1,.862-1.486,3.326,3.326,0,0,1,1.486-.862,34.1,34.1,0,0,1,5.847-.48l4.361-.048,4.362.048a34.1,34.1,0,0,1,5.847.48,3.323,3.323,0,0,1,1.486.862A3.324,3.324,0,0,1-925.885,557.7Zm-15.241,10.257,6.854-3.93-6.854-3.882Z" transform="translate(951.527 -554.822)" fill="#fff"/>
</svg>
