<svg xmlns="http://www.w3.org/2000/svg" width="412.901" height="96.455" viewBox="0 0 412.901 96.455">
  <g id="Group_214" data-name="Group 214" transform="translate(-166.785 -360.843)">
    <g id="Group_212" data-name="Group 212" transform="translate(341.747 439.794)">
      <path id="Path_95" data-name="Path 95" d="M285.7,423.3v-.047a9.072,9.072,0,0,1,18.13-.049v.049a9.072,9.072,0,0,1-18.13.047Zm13.345,0v-.047a4.341,4.341,0,0,0-4.3-4.545,4.294,4.294,0,0,0-4.28,4.5v.049a4.374,4.374,0,0,0,4.327,4.545A4.291,4.291,0,0,0,299.041,423.3Z" transform="translate(-285.696 -414.501)" fill="#fff"/>
      <path id="Path_96" data-name="Path 96" d="M300.468,414.73h13.464v4.089h-8.8v2.86h7.959v3.871h-7.959v6.012h-4.664Z" transform="translate(-278.733 -414.393)" fill="#fff"/>
      <path id="Path_97" data-name="Path 97" d="M323.475,414.648h4.5l7.164,16.953h-5l-1.2-3.031h-6.515l-1.2,3.031h-4.881Zm4.087,10.292-1.876-4.761-1.9,4.761Z" transform="translate(-271.255 -414.432)" fill="#fff"/>
      <path id="Path_98" data-name="Path 98" d="M331.04,414.73H335.7v12.745h8.151v4.087H331.04Z" transform="translate(-264.322 -414.393)" fill="#fff"/>
      <path id="Path_99" data-name="Path 99" d="M341.939,414.73h8.633a6.307,6.307,0,0,1,4.592,1.491,3.789,3.789,0,0,1,1.081,2.741v.049a3.893,3.893,0,0,1-2.6,3.75c2.045.674,3.343,1.829,3.343,4.113v.049c0,2.885-2.357,4.641-6.371,4.641h-8.681Zm9.714,5.194c0-.937-.746-1.443-2.114-1.443h-3.056v2.959h2.934c1.418,0,2.236-.481,2.236-1.467Zm-1.611,4.785h-3.559v3.1h3.608c1.443,0,2.236-.553,2.236-1.539v-.047C352.327,425.311,351.606,424.709,350.042,424.709Z" transform="translate(-259.185 -414.393)" fill="#fff"/>
      <path id="Path_100" data-name="Path 100" d="M354.439,414.73h13.538v3.943h-8.921v2.573h8.078v3.678h-8.078V427.6H368.1v3.967H354.439Z" transform="translate(-253.293 -414.393)" fill="#fff"/>
      <path id="Path_101" data-name="Path 101" d="M366.172,414.73h7.959c2.572,0,4.352.674,5.482,1.8a5.254,5.254,0,0,1,1.49,3.918v.049a5.336,5.336,0,0,1-3.462,5.2l4.014,5.866h-5.36l-3.392-5.1h-2.067v5.1h-4.664Zm7.766,8.079c1.563,0,2.5-.769,2.5-2v-.047c0-1.346-.986-2.02-2.523-2.02h-3.078v4.064Z" transform="translate(-247.762 -414.393)" fill="#fff"/>
      <path id="Path_102" data-name="Path 102" d="M383.141,418.819h-5.025V414.73h14.74v4.089h-5.05v12.743h-4.666Z" transform="translate(-242.132 -414.393)" fill="#fff"/>
      <path id="Path_103" data-name="Path 103" d="M395.11,414.648h4.5l7.164,16.953h-5l-1.2-3.031h-6.515l-1.2,3.031h-4.881ZM399.2,424.94l-1.876-4.761-1.9,4.761Z" transform="translate(-237.488 -414.432)" fill="#fff"/>
    </g>
    <g id="Group_213" data-name="Group 213" transform="translate(166.785 389.945)">
      <path id="Path_104" data-name="Path 104" d="M166.785,399.263v-.1a17.627,17.627,0,0,1,18.085-17.936c6.54,0,10.457,2.179,13.676,5.35l-4.855,5.6c-2.675-2.428-5.4-3.914-8.869-3.914-5.847,0-10.058,4.856-10.058,10.8v.1c0,5.946,4.112,10.9,10.058,10.9,3.964,0,6.392-1.586,9.117-4.064l4.857,4.905a17.731,17.731,0,0,1-14.221,6.194A17.507,17.507,0,0,1,166.785,399.263Z" transform="translate(-166.785 -380.336)" fill="#fff"/>
      <path id="Path_105" data-name="Path 105" d="M192.474,387.317h7.532v5.351c1.536-3.665,4.012-6.044,8.472-5.847V394.7h-.4c-5,0-8.076,3.024-8.076,9.365v9.811h-7.532Z" transform="translate(-154.676 -377.705)" fill="#fff"/>
      <path id="Path_106" data-name="Path 106" d="M205.5,400.742v-.1c0-7.581,5.4-13.825,13.132-13.825,8.868,0,12.932,6.889,12.932,14.419,0,.594-.049,1.289-.1,1.983H212.985a6.161,6.161,0,0,0,6.492,5.2,8.7,8.7,0,0,0,6.442-2.725l4.311,3.815a13.285,13.285,0,0,1-10.851,4.956C211.4,414.468,205.5,408.869,205.5,400.742Zm18.729-2.228c-.444-3.369-2.426-5.65-5.6-5.65-3.122,0-5.154,2.229-5.749,5.65Z" transform="translate(-148.535 -377.701)" fill="#fff"/>
      <path id="Path_107" data-name="Path 107" d="M226.546,403.564v-.1c0-8.868,5.8-13.725,12.09-13.725a10.2,10.2,0,0,1,8.275,3.965V380.622h7.532v36.172h-7.532v-3.817a9.75,9.75,0,0,1-8.275,4.313C232.443,417.29,226.546,412.433,226.546,403.564Zm20.464,0v-.1c0-4.41-2.922-7.332-6.442-7.332s-6.49,2.874-6.49,7.332v.1c0,4.411,2.974,7.333,6.49,7.333S247.01,407.975,247.01,403.564Z" transform="translate(-138.616 -380.622)" fill="#fff"/>
      <path id="Path_108" data-name="Path 108" d="M250.518,380.622h7.928v6.69h-7.928Zm.2,9.612h7.532v26.56h-7.532Z" transform="translate(-127.316 -380.622)" fill="#fff"/>
      <path id="Path_109" data-name="Path 109" d="M262.78,408.357V395.771h-3.172v-6.442h3.172v-6.787h7.532v6.787h6.243v6.442h-6.243v11.347c0,1.735.743,2.576,2.426,2.576a7.653,7.653,0,0,0,3.718-.942V414.8a11.124,11.124,0,0,1-5.946,1.536C265.9,416.335,262.78,414.5,262.78,408.357Z" transform="translate(-123.031 -379.717)" fill="#fff"/>
      <path id="Path_110" data-name="Path 110" d="M285.836,401.452V381.633h7.63v19.622c0,5.649,2.825,8.571,7.482,8.571S308.43,407,308.43,401.5V381.633h7.632v19.572c0,10.5-5.9,15.657-15.212,15.657S285.836,411.659,285.836,401.452Z" transform="translate(-110.668 -380.145)" fill="#fff"/>
      <path id="Path_111" data-name="Path 111" d="M311.458,387.314h7.532v3.767c1.735-2.231,3.964-4.263,7.779-4.263,5.7,0,9.018,3.767,9.018,9.863v17.193h-7.532V399.058c0-3.568-1.685-5.4-4.558-5.4s-4.707,1.833-4.707,5.4v14.815h-7.532Z" transform="translate(-98.591 -377.701)" fill="#fff"/>
      <path id="Path_112" data-name="Path 112" d="M332.87,380.622H340.8v6.69H332.87Zm.2,9.612H340.6v26.56h-7.532Z" transform="translate(-88.498 -380.622)" fill="#fff"/>
      <path id="Path_113" data-name="Path 113" d="M342.4,400.742v-.1c0-7.63,6.144-13.825,14.419-13.825,8.226,0,14.321,6.1,14.321,13.725v.1c0,7.63-6.144,13.825-14.419,13.825C348.494,414.468,342.4,408.373,342.4,400.742Zm21.308,0v-.1a7.057,7.057,0,0,0-6.988-7.333c-4.311,0-6.887,3.319-6.887,7.233v.1a7.056,7.056,0,0,0,6.986,7.333C361.128,407.976,363.706,404.657,363.706,400.742Z" transform="translate(-84.007 -377.701)" fill="#fff"/>
      <path id="Path_114" data-name="Path 114" d="M365.967,387.314H373.5v3.767c1.735-2.231,3.962-4.263,7.779-4.263,5.7,0,9.018,3.767,9.018,9.863v17.193h-7.532V399.058c0-3.568-1.685-5.4-4.558-5.4s-4.707,1.833-4.707,5.4v14.815h-7.532Z" transform="translate(-72.897 -377.701)" fill="#fff"/>
      <path id="Path_115" data-name="Path 115" d="M385.864,410.322l3.221-4.954a15.025,15.025,0,0,0,8.374,3.172c2.181,0,3.171-.795,3.171-1.982v-.1c0-1.635-2.576-2.181-5.5-3.071-3.715-1.092-7.928-2.825-7.928-7.978v-.1c0-5.4,4.36-8.424,9.712-8.424a18.367,18.367,0,0,1,9.908,3.072l-2.874,5.2a15.727,15.727,0,0,0-7.185-2.478c-1.833,0-2.774.793-2.774,1.833v.1c0,1.485,2.526,2.179,5.4,3.171,3.715,1.239,8.026,3.022,8.026,7.878v.1c0,5.9-4.41,8.572-10.158,8.572A18.605,18.605,0,0,1,385.864,410.322Z" transform="translate(-63.519 -377.669)" fill="#fff"/>
    </g>
    <path id="Path_116" data-name="Path 116" d="M460.925,360.843H415.75a2.689,2.689,0,0,0-2.69,2.663c-.093,10.339.038,47.537.062,53.851a2.7,2.7,0,0,0,.565,1.638l28.748,37.062a2.691,2.691,0,0,0,2.125,1.04h16.366a2.689,2.689,0,0,0,2.69-2.69V363.533A2.689,2.689,0,0,0,460.925,360.843Zm-30.151,23.879a6.47,6.47,0,1,1-5.406-7.382A6.468,6.468,0,0,1,430.774,384.722Zm5.554,9.214a6.47,6.47,0,1,1,5.406,7.382A6.469,6.469,0,0,1,436.329,393.936Zm13.285,42.8a6.47,6.47,0,1,1-5.406-7.382A6.47,6.47,0,0,1,449.614,436.732Zm7.088-19.665a6.47,6.47,0,1,1-5.406-7.382A6.47,6.47,0,0,1,456.7,417.067Z" transform="translate(116.071 0)" fill="#fff"/>
  </g>
</svg>
