<svg xmlns="http://www.w3.org/2000/svg" width="212.434" height="90.913" viewBox="0 0 212.434 90.913">
  <g id="Group_107" data-name="Group 107" transform="translate(467.665 -233.768)">
    <path id="Path_53" data-name="Path 53" d="M-219.784,256.735a29.3,29.3,0,0,0-29.3,29.3,29.3,29.3,0,0,0,29.3,29.3,29.3,29.3,0,0,0,29.3-29.3A29.3,29.3,0,0,0-219.784,256.735Zm-1.782,44.551a7.844,7.844,0,0,1-3.462,6.158,7.548,7.548,0,0,1-4.228,1.29,7.982,7.982,0,0,1-1.793-.207,7.782,7.782,0,0,1-4.974-3.631c-.125-.219-.243-.448-.349-.679a7.374,7.374,0,0,1-.65-3.254,3.925,3.925,0,0,1,1.954-3.508,3.934,3.934,0,0,1,1.966-.529,3.94,3.94,0,0,1,3.4,1.954,3.932,3.932,0,0,1-1.427,5.366c-.062.037-.128.07-.193.1a.454.454,0,0,0-.067.048.087.087,0,0,0,.009.072c.037.065.277.392,1.651.6.048.008.227.021.279.021a4.284,4.284,0,0,0,1.1-.171,4.173,4.173,0,0,0,2.262-1.617,4.293,4.293,0,0,0,.682-2.719v-8.815a3.076,3.076,0,0,0-.488-1.666,2.768,2.768,0,0,0-.785-.848c-.008-.007-.31-.186-.359-.212l-7.6-4.34a4.291,4.291,0,0,0-2.7-.756,4.17,4.17,0,0,0-2.526,1.162,4.28,4.28,0,0,0-.694.87c-.026.047-.1.208-.12.254-.5,1.294-.339,1.666-.3,1.729a.088.088,0,0,0,.058.044.47.47,0,0,0,.076-.035c.061-.04.123-.079.185-.116a3.933,3.933,0,0,1,5.367,1.422,3.94,3.94,0,0,1,.011,3.921,3.925,3.925,0,0,1-1.435,1.445,3.924,3.924,0,0,1-4.015-.043,7.363,7.363,0,0,1-2.5-2.177c-.148-.206-.288-.422-.416-.639a7.778,7.778,0,0,1-.687-6.12,7.978,7.978,0,0,1,.709-1.659,7.549,7.549,0,0,1,3.217-3.032,7.845,7.845,0,0,1,7.065.048l.158.085,11.615,6.635.008,13.368C-221.562,301.185-221.563,301.247-221.565,301.286Zm1.756-16.817-11.554-6.724-.153-.094a7.847,7.847,0,0,1-3.578-6.092,7.547,7.547,0,0,1,1.015-4.3A7.956,7.956,0,0,1-233,265.811a7.776,7.776,0,0,1,5.642-2.469c.252,0,.509.015.762.04a7.364,7.364,0,0,1,3.138,1.077,3.925,3.925,0,0,1,2.048,3.455,3.93,3.93,0,0,1-.533,1.965,3.94,3.94,0,0,1-3.4,1.953,3.932,3.932,0,0,1-3.917-3.935c0-.072,0-.145.008-.218a.585.585,0,0,0-.008-.082.085.085,0,0,0-.067-.028c-.074,0-.478.042-1.347,1.125-.031.038-.133.185-.16.23a4.292,4.292,0,0,0-.406,1.036,4.174,4.174,0,0,0,.258,2.768,4.293,4.293,0,0,0,2.006,1.958l7.591,4.424.025.016a3.081,3.081,0,0,0,1.685.418,2.767,2.767,0,0,0,1.128-.25c.011,0,.317-.174.364-.2l7.576-4.38a4.291,4.291,0,0,0,2.013-1.952,4.173,4.173,0,0,0,.268-2.768,4.287,4.287,0,0,0-.4-1.037c-.026-.046-.128-.193-.159-.231-.865-1.087-1.268-1.132-1.342-1.13a.084.084,0,0,0-.067.028.509.509,0,0,0-.008.082c0,.073.007.146.007.218a3.932,3.932,0,0,1-3.931,3.921,3.941,3.941,0,0,1-3.394-1.965,3.933,3.933,0,0,1-.525-1.967,3.925,3.925,0,0,1,2.059-3.448,7.366,7.366,0,0,1,3.142-1.066c.253-.024.51-.036.762-.037a7.774,7.774,0,0,1,5.633,2.488,7.984,7.984,0,0,1,1.077,1.449,7.546,7.546,0,0,1,1,4.306,7.846,7.846,0,0,1-3.6,6.08c-.033.02-.085.053-.154.094Zm23.472,7.951a7.368,7.368,0,0,1-2.5,2.177,3.925,3.925,0,0,1-4.016.043,3.929,3.929,0,0,1-1.434-1.445,3.941,3.941,0,0,1,.01-3.921,3.933,3.933,0,0,1,5.368-1.422c.062.037.124.076.185.116a.468.468,0,0,0,.076.035.09.09,0,0,0,.058-.044c.038-.064.2-.435-.3-1.729-.018-.046-.093-.207-.12-.254a4.3,4.3,0,0,0-.693-.87,4.17,4.17,0,0,0-2.526-1.162,4.291,4.291,0,0,0-2.7.756l-7.6,4.34c-.049.026-.35.205-.359.212a2.768,2.768,0,0,0-.785.848,3.076,3.076,0,0,0-.488,1.666v8.815a4.289,4.289,0,0,0,.682,2.719,4.173,4.173,0,0,0,2.262,1.617,4.283,4.283,0,0,0,1.1.171c.053,0,.231-.014.279-.021,1.374-.2,1.615-.532,1.651-.6a.087.087,0,0,0,.009-.072.488.488,0,0,0-.067-.048c-.065-.034-.13-.067-.193-.1a3.932,3.932,0,0,1-1.427-5.366,3.94,3.94,0,0,1,3.4-1.954,3.936,3.936,0,0,1,1.967.529,3.925,3.925,0,0,1,1.953,3.508,7.365,7.365,0,0,1-.649,3.254c-.106.231-.224.46-.349.679a7.782,7.782,0,0,1-4.974,3.631,7.982,7.982,0,0,1-1.793.207,7.548,7.548,0,0,1-4.228-1.29A7.844,7.844,0,0,1-218,301.286c0-.039,0-.1-.005-.18l.009-13.368,11.615-6.635.158-.085a7.845,7.845,0,0,1,7.065-.048A7.549,7.549,0,0,1-195.943,284a7.981,7.981,0,0,1,.709,1.659,7.778,7.778,0,0,1-.687,6.12C-196.049,292-196.189,292.213-196.337,292.419Z" transform="translate(-81.025 -8.514)" fill="#fff"/>
    <path id="Path_54" data-name="Path 54" d="M-226.158,233.768a43.758,43.758,0,0,0-40.123,26.3,26.439,26.439,0,0,1,6.284,9.25A34.829,34.829,0,0,1-226.158,242.7a34.822,34.822,0,0,1,34.822,34.822,34.823,34.823,0,0,1-34.822,34.825,34.834,34.834,0,0,1-33.193-24.281,26.6,26.6,0,0,1-5.591,9.709,43.739,43.739,0,0,0,38.784,23.505A43.756,43.756,0,0,0-182.4,277.523,43.755,43.755,0,0,0-226.158,233.768Z" transform="translate(-74.651)" fill="#fff"/>
    <g id="Group_103" data-name="Group 103" transform="translate(-268.316 235.776)">
      <path id="Path_55" data-name="Path 55" d="M-145.284,236.959v.824h-2.33v6.092h-.947v-6.092h-2.33v-.824Z" transform="translate(150.891 -236.959)" fill="#fff"/>
      <path id="Path_56" data-name="Path 56" d="M-140.649,236.959h1.342l1.989,5.848,1.975-5.848h1.333v6.917h-.895v-4.082c0-.141,0-.375.01-.7s.009-.677.009-1.05l-1.975,5.834h-.928l-1.994-5.834v.211q0,.255.015.775c.009.346.014.6.014.765v4.082h-.9Z" transform="translate(147.094 -236.959)" fill="#fff"/>
    </g>
    <g id="Group_104" data-name="Group 104" transform="translate(-467.665 242.71)">
      <path id="Path_57" data-name="Path 57" d="M-447.57,305.941a11.1,11.1,0,0,1-10.268-6.914l30.028-.011a20.8,20.8,0,0,0,.42-4.166,19.882,19.882,0,0,0-20.179-20.013,19.841,19.841,0,0,0-20.1,20.013,20.118,20.118,0,0,0,20.1,20.1,19.953,19.953,0,0,0,18.331-11.562h-11.215A11.151,11.151,0,0,1-447.57,305.941Zm0-22.266a11.187,11.187,0,0,1,10.331,6.929h-20.586A11.1,11.1,0,0,1-447.57,283.675Z" transform="translate(467.665 -257.934)" fill="#fff"/>
      <path id="Path_58" data-name="Path 58" d="M-307.977,274.794a19.84,19.84,0,0,0-20.1,20.012,20.118,20.118,0,0,0,20.1,20.1,19.923,19.923,0,0,0,20.179-20.1A19.882,19.882,0,0,0-307.977,274.794Zm11.174,20.012A11.145,11.145,0,0,1-307.977,305.9a11.1,11.1,0,0,1-11.092-11.091,11.145,11.145,0,0,1,11.092-11.175A11.187,11.187,0,0,1-296.8,294.806Z" transform="translate(415.919 -257.918)" fill="#fff"/>
      <path id="Path_59" data-name="Path 59" d="M-366.521,247.977v20.1a21.7,21.7,0,0,0-11.174-3.221,19.84,19.84,0,0,0-20.1,20.012,20.118,20.118,0,0,0,20.1,20.1,20.587,20.587,0,0,0,11.174-3.311v3.342h9V247.977Zm0,36.888A11.145,11.145,0,0,1-377.7,295.956a11.1,11.1,0,0,1-11.092-11.091A11.145,11.145,0,0,1-377.7,273.691a11.155,11.155,0,0,1,11.174,10.449Z" transform="translate(441.763 -247.977)" fill="#fff"/>
    </g>
    <g id="Group_106" data-name="Group 106" transform="translate(-422.66 301.181)">
      <path id="Path_60" data-name="Path 60" d="M-310.382,362.824h1.4A8.335,8.335,0,0,0-305,361.478v1.362h3.784v-8.43A8.355,8.355,0,0,0-309.7,346a8.338,8.338,0,0,0-8.445,8.41A8.454,8.454,0,0,0-310.382,362.824Zm.685-13.111a4.7,4.7,0,0,1,4.7,4.7,4.683,4.683,0,0,1-4.7,4.661,4.666,4.666,0,0,1-4.661-4.661A4.684,4.684,0,0,1-309.7,349.713Z" transform="translate(367.234 -342.784)" fill="#fff"/>
      <path id="Path_61" data-name="Path 61" d="M-365.841,362.83h3.784v-8.445a8.356,8.356,0,0,0-8.48-8.411,8.339,8.339,0,0,0-8.445,8.411,8.455,8.455,0,0,0,8.445,8.445,8.432,8.432,0,0,0,4.7-1.377Zm-4.7-3.783a4.666,4.666,0,0,1-4.661-4.661,4.684,4.684,0,0,1,4.661-4.7,4.7,4.7,0,0,1,4.7,4.7A4.684,4.684,0,0,1-370.537,359.047Z" transform="translate(389.787 -342.775)" fill="#fff"/>
      <path id="Path_62" data-name="Path 62" d="M-339.714,345.888a8.715,8.715,0,0,0-4.661,1.368v-1.38h-3.784v20.362h3.784v-4.853a8.718,8.718,0,0,0,4.661,1.393,8.472,8.472,0,0,0,8.48-8.445A8.472,8.472,0,0,0-339.714,345.888Zm0,13.106a4.666,4.666,0,0,1-4.661-4.661v-.289a4.716,4.716,0,0,1,4.662-4.407,4.7,4.7,0,0,1,4.7,4.7A4.684,4.684,0,0,1-339.714,358.994Z" transform="translate(378.361 -342.739)" fill="#fff"/>
      <path id="Path_63" data-name="Path 63" d="M-279.988,345.913h-.123a7.235,7.235,0,0,0-7.241,7.11v9.785h3.887v-9.783a3.414,3.414,0,0,1,3.416-3.354,3.414,3.414,0,0,1,3.415,3.354v9.783h3.887v-9.785A7.235,7.235,0,0,0-279.988,345.913Z" transform="translate(355.82 -342.752)" fill="#fff"/>
      <g id="Group_105" data-name="Group 105" transform="translate(0 0)">
        <rect id="Rectangle_41" data-name="Rectangle 41" width="3.784" height="3.143" transform="translate(4.753)" fill="#fff"/>
        <path id="Path_64" data-name="Path 64" d="M-391.4,348.418v8.748c0,1.938-2.2,2.984-4.277,2.984h-.476v3.819h.476c4.6,0,8.06-2.924,8.06-6.8v-8.748Z" transform="translate(396.151 -343.681)" fill="#fff"/>
      </g>
    </g>
  </g>
</svg>
