<svg xmlns="http://www.w3.org/2000/svg" xmlns:xlink="http://www.w3.org/1999/xlink" width="210.06" height="119.391" viewBox="0 0 210.06 119.391">
  <defs>
    <clipPath id="clip-path">
      <path id="Path_52" data-name="Path 52" d="M0,41.488H210.06V-77.9H0Z" transform="translate(0 77.903)" fill="none"/>
    </clipPath>
  </defs>
  <g id="Group_102" data-name="Group 102" transform="translate(0 77.903)">
    <g id="Group_101" data-name="Group 101" transform="translate(0 -77.903)" clip-path="url(#clip-path)">
      <g id="Group_83" data-name="Group 83" transform="translate(62.142 105.835)">
        <path id="Path_34" data-name="Path 34" d="M2.559,3.91h0a.715.715,0,0,1-.72.722h-4.19V-5.346h4.19a.69.69,0,0,1,.72.722ZM2.9-7.341h-7.7V6.584H2.9A2.18,2.18,0,0,0,5.1,4.418V-5.133A2.189,2.189,0,0,0,2.9-7.341" transform="translate(4.806 7.341)" fill="#fdfdfd"/>
      </g>
      <g id="Group_84" data-name="Group 84" transform="translate(83.011 105.836)">
        <path id="Path_35" data-name="Path 35" d="M0,0H2.455V13.925H0Z" fill="#fdfdfd"/>
      </g>
      <g id="Group_85" data-name="Group 85" transform="translate(156.625 105.836)">
        <path id="Path_36" data-name="Path 36" d="M0,0H2.455V13.925H0Z" fill="#fdfdfd"/>
      </g>
      <g id="Group_86" data-name="Group 86" transform="translate(169.96 105.835)">
        <path id="Path_37" data-name="Path 37" d="M2.736,4.839h0a2.208,2.208,0,0,0,2.2-2.166V.805H2.4V2.165a.743.743,0,0,1-.72.722H-1.879a.752.752,0,0,1-.762-.722V-6.369a.725.725,0,0,1,.762-.722H1.677a.715.715,0,0,1,.72.722v1.316H4.937V-6.878a2.216,2.216,0,0,0-2.2-2.208H-2.936a2.189,2.189,0,0,0-2.2,2.208V2.673a2.18,2.18,0,0,0,2.2,2.166Z" transform="translate(5.137 9.086)" fill="#fdfdfd"/>
      </g>
      <g id="Group_87" data-name="Group 87" transform="translate(189.812 105.836)">
        <path id="Path_38" data-name="Path 38" d="M4.354,0H-8.176V2h4.995V13.925H-.64V2H4.354Z" transform="translate(8.176)" fill="#fdfdfd"/>
      </g>
      <g id="Group_88" data-name="Group 88" transform="translate(114.548 105.836)">
        <path id="Path_39" data-name="Path 39" d="M4.354,0H-8.176V2h4.995V13.925H-.64V2H4.354Z" transform="translate(8.176)" fill="#fdfdfd"/>
      </g>
      <g id="Group_89" data-name="Group 89" transform="translate(96.345 105.835)">
        <path id="Path_40" data-name="Path 40" d="M.853,1.239h0A1.593,1.593,0,0,1,2.419-.332H4.2A1.639,1.639,0,0,1,5.848,1.239v.467H8.3V.517A2.84,2.84,0,0,0,5.468-2.327H1.235A2.841,2.841,0,0,0-1.6.517V2.131a2.172,2.172,0,0,0,1.355,2l5.5,2.207a1.016,1.016,0,0,1,.634.935v.806A1.519,1.519,0,0,1,4.367,9.6H2.419A1.519,1.519,0,0,1,.9,8.074v-.51H-1.6V8.753a2.913,2.913,0,0,0,2.878,2.887H5.509A2.878,2.878,0,0,0,8.346,8.753V6.8a2.169,2.169,0,0,0-1.355-2L1.488,2.6a1.012,1.012,0,0,1-.634-.933Z" transform="translate(1.602 2.327)" fill="#fdfdfd"/>
      </g>
      <g id="Group_90" data-name="Group 90" transform="translate(135.713 105.836)">
        <path id="Path_41" data-name="Path 41" d="M.853.693H5.045a.69.69,0,0,1,.719.722V4.6a.725.725,0,0,1-.719.765H.853ZM5.891,12.623H8.43L6.4,7.274A2.16,2.16,0,0,0,8.3,5.109V.906A2.189,2.189,0,0,0,6.1-1.3H-1.6V12.623H.853V7.316H3.817Z" transform="translate(1.602 1.302)" fill="#fdfdfd"/>
      </g>
      <g id="Group_91" data-name="Group 91" transform="translate(62.142 43.175)">
        <path id="Path_42" data-name="Path 42" d="M0,0H11.3V48.694H0Z" fill="#fdfdfd"/>
      </g>
      <g id="Group_92" data-name="Group 92" transform="translate(146.127 43.387)">
        <path id="Path_43" data-name="Path 43" d="M6.678,3.659H32.246a8.648,8.648,0,0,1-8.762,8.49H-2.085a8.79,8.79,0,0,1,8.763-8.49M41.559,38.216h0l-8.975-6.072a4.929,4.929,0,0,0-3.005-.976H6.678a8.79,8.79,0,0,1-8.763-8.49H23.569A19.014,19.014,0,0,0,42.66,3.659V-6.87H6.678A19.259,19.259,0,0,0-12.54,12.4v10.02A19.222,19.222,0,0,0,6.678,41.654H42.7v-.933a2.948,2.948,0,0,0-1.143-2.5" transform="translate(12.54 6.87)" fill="#fdfdfd"/>
      </g>
      <g id="Group_93" data-name="Group 93" transform="translate(85.425 43.387)">
        <path id="Path_44" data-name="Path 44" d="M18.814,15.667h0L9.839,9.6A5,5,0,0,0,6.834,8.62H-16.11A8.748,8.748,0,0,1-24.829-.126V-10.145a8.721,8.721,0,0,1,8.719-8.746H6.411A5.652,5.652,0,0,0,9.8-19.824l9.016-6.113a3.015,3.015,0,0,0,1.143-2.5v-.976H-16.11A19.285,19.285,0,0,0-35.327-10.145V-.126A19.25,19.25,0,0,0-16.11,19.106H19.957v-.935a2.952,2.952,0,0,0-1.143-2.5" transform="translate(35.327 29.418)" fill="#fdfdfd"/>
      </g>
      <g id="Group_94" data-name="Group 94" transform="translate(0 16.99)">
        <path id="Path_45" data-name="Path 45" d="M7.061,6.385h0a6.193,6.193,0,0,0-.466-5.051A3.816,3.816,0,0,0,6,.4L-3.142-9.833a3.428,3.428,0,0,0-1.9-1.061L-10-11.955a3.28,3.28,0,0,0-2.455.892l-.8.722L-1.489,2.776C.118,4.559.161,5.79-.093,6.555a3.331,3.331,0,0,1-.3.595c-.636.933-2.582,3.693-3.344,4.84-.17.3-.3.509-.382.679a2.447,2.447,0,0,0,.593,2.377l1.016,1.146L5.451,9.016A6.057,6.057,0,0,0,7.061,6.385" transform="translate(13.258 11.989)" fill="#fdfdfd"/>
      </g>
      <g id="Group_95" data-name="Group 95" transform="translate(36.658 34.174)">
        <path id="Path_46" data-name="Path 46" d="M.912.8h0A6.219,6.219,0,0,0-1.67,5.169a8.444,8.444,0,0,0-.043,1.062L-.315,19.9a3.92,3.92,0,0,0,.889,2L4,25.716a3.351,3.351,0,0,0,2.5.68l1.1-.086L5.738,8.735c-.254-2.377.466-3.4,1.1-3.864a1.714,1.714,0,0,1,.593-.3c1.016-.382,4.233-1.485,5.545-2a1.693,1.693,0,0,0,.677-.3A2.608,2.608,0,0,0,14.586.032L14.416-1.5,3.79-.393A6.4,6.4,0,0,0,.912.8" transform="translate(1.713 1.496)" fill="#fdfdfd"/>
      </g>
      <g id="Group_96" data-name="Group 96" transform="translate(35.98 11.504)">
        <path id="Path_47" data-name="Path 47" d="M.1,4.706h0A6.421,6.421,0,0,0,3.491,8.527a5.112,5.112,0,0,0,.973.382L17.883,11.8a3.69,3.69,0,0,0,2.159-.254L24.7,9.46A3.315,3.315,0,0,0,26.137,7.3l.254-1.062L9.163,2.584C6.835,2.075,6.073,1.1,5.818.334A2.964,2.964,0,0,1,5.734-.3c-.043-1.146-.127-4.5-.17-5.9a3.149,3.149,0,0,0-.084-.765A2.466,2.466,0,0,0,3.618-8.54l-1.482-.3L-.108,1.65A6.776,6.776,0,0,0,.1,4.706" transform="translate(0.194 8.837)" fill="#fdfdfd"/>
      </g>
      <g id="Group_97" data-name="Group 97" transform="translate(6.54 41.574)">
        <path id="Path_48" data-name="Path 48" d="M7.951.438h0A6.184,6.184,0,0,0,3.04-.708c-.339.084-.677.17-1.059.3L-10.547,5.151a3.649,3.649,0,0,0-1.609,1.485L-14.7,11.051a3.357,3.357,0,0,0,.084,2.633l.423.976L1.9,7.485c2.2-.976,3.387-.636,4.021-.169a2,2,0,0,1,.466.466c.677.892,2.71,3.609,3.6,4.67a2.274,2.274,0,0,0,.466.552,2.5,2.5,0,0,0,2.455.213l1.4-.638L9.94,2.774A5.884,5.884,0,0,0,7.951.438" transform="translate(14.929 0.823)" fill="#fdfdfd"/>
      </g>
      <g id="Group_98" data-name="Group 98" transform="translate(12.361 -0.17)">
        <path id="Path_49" data-name="Path 49" d="M4.251,8.527h0a6.425,6.425,0,0,0,4.656-2,6.532,6.532,0,0,0,.677-.849l6.9-11.929a3.711,3.711,0,0,0,.423-2.123l-.55-5.094A3.417,3.417,0,0,0,14.749-15.5l-.932-.509L5.013-.771C3.828,1.31,2.642,1.734,1.88,1.734A3.164,3.164,0,0,1,1.2,1.649C.145,1.31-3.072.334-4.426-.049a3.218,3.218,0,0,0-.72-.127A2.443,2.443,0,0,0-7.22,1.1l-.762,1.316L1.246,7.8a6.8,6.8,0,0,0,3.005.722" transform="translate(7.982 16.011)" fill="#fdfdfd"/>
      </g>
      <g id="Group_99" data-name="Group 99" transform="translate(206.279 105.836)">
        <path id="Path_50" data-name="Path 50" d="M.588,0h0V.254H-.089V2.123h-.3V.254h-.72V0Z" transform="translate(1.105)" fill="#fdfdfd"/>
      </g>
      <g id="Group_100" data-name="Group 100" transform="translate(208.226 105.836)">
        <path id="Path_51" data-name="Path 51" d="M0,0H.423l.593,1.825L1.651,0h.382V2.123H1.778V.34L1.185,2.123h-.3L.3.34V2.123H0Z" fill="#fdfdfd"/>
      </g>
    </g>
  </g>
</svg>
