<?xml version="1.0" encoding="UTF-8" standalone="no"?><!DOCTYPE svg PUBLIC "-//W3C//DTD SVG 1.1//EN" "http://www.w3.org/Graphics/SVG/1.1/DTD/svg11.dtd"><svg width="100%" height="100%" viewBox="0 0 23 23" version="1.1" xmlns="http://www.w3.org/2000/svg" xmlns:xlink="http://www.w3.org/1999/xlink" xml:space="preserve" xmlns:serif="http://www.serif.com/" style="fill-rule:evenodd;clip-rule:evenodd;stroke-linejoin:round;stroke-miterlimit:2;"><path id="emoji" d="M11.704,22.423c6.065,0 10.999,-4.936 10.999,-11.004c0,-6.067 -4.934,-11.003 -10.999,-11.003c-6.065,0 -11,4.936 -11,11.003c0,6.068 4.935,11.004 11,11.004Zm0,-20.932c5.472,0 9.924,4.455 9.924,9.928c0,5.474 -4.452,9.928 -9.924,9.928c-5.472,0 -9.924,-4.454 -9.924,-9.928c0,-5.473 4.452,-9.928 9.924,-9.928Zm0,17.609c2.636,0 4.895,-2.136 5.848,-5.175c0.132,-0.419 -0.276,-0.808 -0.691,-0.663c-1.522,0.529 -3.281,0.833 -5.157,0.833c-1.876,0 -3.636,-0.304 -5.158,-0.833c-0.414,-0.145 -0.822,0.244 -0.691,0.663c0.954,3.039 3.213,5.175 5.849,5.175Zm3.645,-12.784c0.908,-0.214 1.817,0.348 2.031,1.256c0.215,0.908 -0.347,1.817 -1.255,2.032c-0.907,0.214 -1.817,-0.348 -2.031,-1.256c-0.214,-0.908 0.348,-1.818 1.255,-2.032Zm-8.066,0c0.907,-0.214 1.816,0.348 2.031,1.256c0.214,0.908 -0.348,1.817 -1.255,2.032c-0.908,0.214 -1.818,-0.348 -2.032,-1.256c-0.214,-0.908 0.348,-1.818 1.256,-2.032Z" style="fill:#ddd;"/></svg>