<?xml version="1.0" encoding="UTF-8" standalone="no"?><!DOCTYPE svg PUBLIC "-//W3C//DTD SVG 1.1//EN" "http://www.w3.org/Graphics/SVG/1.1/DTD/svg11.dtd"><svg width="100%" height="100%" viewBox="0 0 36 37" version="1.1" xmlns="http://www.w3.org/2000/svg" xmlns:xlink="http://www.w3.org/1999/xlink" xml:space="preserve" xmlns:serif="http://www.serif.com/" style="fill-rule:evenodd;clip-rule:evenodd;stroke-linejoin:round;stroke-miterlimit:2;"><path id="Shape-509" serif:id="Shape 509" d="M35.518,32.207l-13.688,-13.709l13.688,-13.71c0.729,-0.729 0.51,-2.115 -0.363,-2.99c-0.947,-0.948 -2.258,-1.094 -2.986,-0.364l-13.687,13.709l-13.689,-13.709c-0.728,-0.73 -2.111,-0.511 -2.985,0.364c-0.946,0.948 -1.092,2.261 -0.364,2.99l13.688,13.71l-13.688,13.709c-0.728,0.729 -0.51,2.115 0.364,2.99c0.947,0.948 2.257,1.094 2.985,0.364l13.689,-13.709l13.687,13.709c0.728,0.73 2.112,0.511 2.986,-0.364c0.946,-0.948 1.092,-2.261 0.363,-2.99Z" style="fill:#fff;fill-rule:nonzero;"/></svg>