<svg xmlns="http://www.w3.org/2000/svg" viewBox="0 0 505 154"><defs><style>.cls-1{fill:#f7403a;}.cls-2{fill:#201547;}</style></defs><title>NF_LOGO_RGB</title><g id="Layer_2" data-name="Layer 2"><g id="Layer_1-2" data-name="Layer 1"><path class="cls-1" d="M171.61,55.87c0-11.3-5.65-21.72-18.08-21.72-10.3,0-16.57,6.4-16.57,17.32V92.15h-7.53V52.73c0-7.28,1.63-25.49,22.22-25.49a21.69,21.69,0,0,1,19.71,11.42l.25-.24.38-9.29h7.78c-.26,4.27-.63,9.29-.63,14.18V92.15h-7.53Z"/><path class="cls-1" d="M69,60.64c0,11.67,6,26.48,21.2,26.48s21.23-14.81,21.23-26.48-6-26.49-21.23-26.49S69,49,69,60.64m21.2-33.4c20.1,0,29.38,16.83,29.38,33.4S110.3,94,90.2,94,60.84,77.21,60.84,60.64s9.29-33.4,29.36-33.4"/><path class="cls-1" d="M42.18,55.87c0-11.3-5.65-21.72-18.09-21.72-10.28,0-16.57,6.4-16.57,17.32V92.15H0V52.73c0-7.28,1.63-25.49,22.22-25.49A21.7,21.7,0,0,1,41.93,38.66l.25-.24.37-9.29h7.79c-.26,4.27-.63,9.29-.63,14.18V92.15H42.18Z"/><path class="cls-1" d="M204.61,92.15V36H191.93v-6.9h12.68V15.7C204.61,4.9,209,0,219.8,0c2.39,0,4.89.88,7.16,1.39v6a29.38,29.38,0,0,0-4.65-.5c-10.3,0-10.54,5.14-10.16,14.18v8h14.31V36H212.15V92.15Z"/><rect class="cls-1" x="238.62" y="29.13" width="7.53" height="63.02"/><path class="cls-1" d="M301.7,48.47c-.63-9.68-6.78-14.32-17.2-14.32-11.55,0-18.71,12.05-18.71,26.36S273,87.13,284.5,87.13c9.79,0,16.57-6,17.2-14.69h8.16c-2,14.43-10.3,21.59-24.6,21.59-18.84,0-27.63-16.19-27.63-33.39s9.42-33.4,28.12-33.4c12.93,0,23.48,7.79,24.11,21.23Z"/><path class="cls-1" d="M330.1,36H317.54V29.13H330.1V13.77l7.53,0V29.13h14.31V36H337.63V78.21c-.13,5.78,2.89,8.91,8.66,8.91a22.5,22.5,0,0,0,6.53-.74V92.9A31.38,31.38,0,0,1,345.16,94c-15.94,0-15.06-10.16-15.06-18.71Z"/><rect class="cls-1" x="365.36" y="29.13" width="7.55" height="63.02"/><path class="cls-1" d="M414.17,34.15C399,34.15,393,49,393,60.64s6,26.48,21.22,26.48,21.21-14.81,21.21-26.48-6-26.49-21.21-26.49m29.37,26.49c0,16.57-9.29,33.39-29.37,33.39s-29.38-16.82-29.38-33.39,9.29-33.4,29.38-33.4,29.37,16.83,29.37,33.4"/><path class="cls-1" d="M462.82,92.15h-7.54V43.31c0-4.89-.37-9.91-.63-14.18h7.79l.38,9.29.24.24a21.72,21.72,0,0,1,19.72-11.42c20.59,0,22.22,18.21,22.22,25.49V92.15h-7.53V51.47c0-10.92-6.28-17.32-16.57-17.32-12.43,0-18.08,10.42-18.08,21.72Z"/><path class="cls-2" d="M303.12,143.35c-.07,2.44,1.22,5.84,7.05,5.84,2.5,0,4.37-.45,5.65-2.06a5,5,0,0,0,1-3c0-3.14-2.24-3.72-7-4.81-6.74-1.54-12.38-2.89-12.38-9.62,0-5.9,5.13-9.76,12.57-9.76,4,0,9.69,1.16,11.61,5a10.27,10.27,0,0,1,.83,4.68h-6.15c.19-4.87-4-5.26-6.23-5.26-.89,0-6.54,0-6.54,4.62,0,3,2.89,3.66,4.55,4.11,8.92,2.12,10.85,2.63,12.77,4.42a8,8,0,0,1,2.44,6,9.78,9.78,0,0,1-4.36,8.15c-2.82,1.73-6.23,2.18-9.56,2.18-6.54,0-12.64-2.7-12.58-10.46Z"/><path class="cls-2" d="M327.76,120.58h5.7v-6.74l6-1.92v8.66h7.18V125h-7.18v19.31c0,1.61,0,4.3,4.3,4.3a13.09,13.09,0,0,0,2.88-.32V153a28.8,28.8,0,0,1-5,.39c-5.52,0-8.15-1.61-8.15-6.86V125h-5.7Z"/><path class="cls-2" d="M359.93,120.71v20.72c0,3.14.7,7.12,6.86,7.12,3,0,5.84-1,7.57-3.59,1.35-1.93,1.35-4.43,1.35-6V120.71h6.22v26.17c0,.64.13,4.24.19,6h-6.28l-.13-5.52c-1.15,2.25-3.34,5.84-10.26,5.84-8,0-11.68-4.55-11.68-10.9V120.71Z"/><path class="cls-2" d="M411,127.38a8.73,8.73,0,0,0-7.06-3.27c-8.85,0-8.85,10.71-8.85,12.89,0,5.71,1.48,12.32,8.85,12.32,9.5,0,9.5-10.46,9.5-13,0-4.69-1.09-7.25-2.44-9m2.24-20.72h6v41.12c0,.7.13,3.46.26,5.13h-6l-.13-5.13a9.23,9.23,0,0,1-2.88,3.4,14.6,14.6,0,0,1-8,2.37c-4.3,0-13.86-2.24-13.86-16.36,0-12.25,7-17.57,14.57-17.57,6.92,0,9.24,4.1,10,5.45Z"/><path class="cls-2" d="M428,152.91h6v-32.2h-6Zm-.64-39.58h7.25v-6.61h-7.25Z"/><path class="cls-2" d="M457.33,149.51c4.55,0,9.75-3.27,9.75-13,0-8-3.72-12.25-9.37-12.25-3.85,0-10.07,2.44-10.07,12.51,0,6.61,2.82,12.7,9.69,12.7m.38-29.64c12.9,0,15.78,10.14,15.78,16.87,0,9.44-5.32,17.26-16.29,17.26-10.65,0-15.85-7.37-15.85-16.81,0-7.95,3.73-17.32,16.36-17.32"/><path class="cls-2" d="M484.85,143.35c-.06,2.44,1.22,5.84,7.06,5.84,2.5,0,4.36-.45,5.65-2.06a5,5,0,0,0,1-3c0-3.14-2.24-3.72-7.05-4.81-6.74-1.54-12.39-2.89-12.39-9.62,0-5.9,5.14-9.76,12.58-9.76,4,0,9.69,1.16,11.61,5a10.27,10.27,0,0,1,.83,4.68H498c.19-4.87-4.05-5.26-6.23-5.26-.9,0-6.54,0-6.54,4.62,0,3,2.89,3.66,4.55,4.11,8.92,2.12,10.84,2.63,12.77,4.42a8,8,0,0,1,2.44,6,9.76,9.76,0,0,1-4.37,8.15c-2.82,1.73-6.22,2.18-9.55,2.18-6.55,0-12.64-2.7-12.58-10.46Z"/></g></g></svg>