<svg xmlns="http://www.w3.org/2000/svg" width="71.336" height="62.699" viewBox="0 0 71.336 62.699">
  <path id="Path_100" data-name="Path 100" d="M375.173,703.009a6.058,6.058,0,0,0-6.043-5.755H346.115a5.465,5.465,0,0,1-5.459-5.459V645.769a5.465,5.465,0,0,1,5.459-5.459h25.891a5.457,5.457,0,0,1,4.093,1.882l.223.253.222-.254a5.445,5.445,0,0,1,4.092-1.881h25.891a5.465,5.465,0,0,1,5.459,5.459l.007,46.027a5.465,5.465,0,0,1-5.459,5.459H383.518a6.058,6.058,0,0,0-6.043,5.755ZM346.115,642.6a3.174,3.174,0,0,0-3.171,3.171l0,46.03a3.175,3.175,0,0,0,3.171,3.171h23.015a8.3,8.3,0,0,1,5.557,2.142l.493.445v-52.94l-.8-.916a3.114,3.114,0,0,0-2.37-1.1Zm34.521,0a3.122,3.122,0,0,0-2.371,1.1l-.8.915,0,52.936.493-.443a8.308,8.308,0,0,1,5.557-2.143h23.015A3.175,3.175,0,0,0,409.7,691.8V645.769a3.175,3.175,0,0,0-3.171-3.171Z" transform="translate(-340.656 -640.31)" fill="#040505"/>
</svg>
