<svg xmlns="http://www.w3.org/2000/svg" width="71.336" height="60.578" viewBox="0 0 71.336 60.578">
  <path id="Path_98" data-name="Path 98" d="M-45.9,522.266A24.52,24.52,0,0,0-62.034,528.4c-5.158-4.575-9.983-6.9-14.339-6.9a21.633,21.633,0,0,0-15.108,6.006,20.311,20.311,0,0,0-6.246,14.547A20.3,20.3,0,0,0-91.481,556.6l27.014,24.546a3.642,3.642,0,0,0,4.867,0l27.013-24.565a20.338,20.338,0,0,0,6.2-14.515,20.324,20.324,0,0,0-6.2-14.516,18.936,18.936,0,0,0-13.31-5.287Zm11.81,32.894-26.993,24.557a1.428,1.428,0,0,1-1.91,0l-26.972-24.538A18.342,18.342,0,0,1-95.6,542.049a18.345,18.345,0,0,1,5.635-13.135,19.435,19.435,0,0,1,13.576-5.408c3.966,0,8.5,2.311,13.472,6.878a1.3,1.3,0,0,0,1.76,0,22.362,22.362,0,0,1,15.066-6.116h.129a16.8,16.8,0,0,1,11.8,4.645,18.384,18.384,0,0,1,5.6,13.123,18.384,18.384,0,0,1-5.6,13.123Zm-30.988,1.583-10.46-8.732-1.416,1.494,11.931,9.948,19.954-17.746-1.457-1.463Z" transform="translate(97.727 -521.504)" fill="#040505"/>
</svg>
