<svg xmlns="http://www.w3.org/2000/svg" width="72.868" height="69.512" viewBox="0 0 72.868 69.512">
  <path id="Path_103" data-name="Path 103" d="M646.078,1027.113v-4.537a15.628,15.628,0,0,0-15.61-15.61H593.531a15.627,15.627,0,0,0-15.609,15.61v4.537h-2.356v-4.537a17.987,17.987,0,0,1,17.965-17.968h36.937a17.988,17.988,0,0,1,17.966,17.968v4.537ZM612,996.893a19.646,19.646,0,1,1,19.646-19.646A19.668,19.668,0,0,1,612,996.893Zm0-36.933a17.287,17.287,0,1,0,17.287,17.287A17.306,17.306,0,0,0,612,959.96Z" transform="translate(-575.566 -957.601)" fill="#040505"/>
</svg>
