<svg xmlns="http://www.w3.org/2000/svg" width="70" height="69.536" viewBox="0 0 70 69.536">
  <g id="Group_181" data-name="Group 181" transform="translate(-399.418 -990.528)">
    <path id="Path_104" data-name="Path 104" d="M468.133,997.72h-9.42v-6.033a1.222,1.222,0,0,0-1.276-1.16H411.39a1.222,1.222,0,0,0-1.275,1.16v6.033h-9.42a1.222,1.222,0,0,0-1.276,1.159v14.657a15.367,15.367,0,0,0,1.256,6.147c2.856,6.628,8.221,10.9,14.12,11.321,4,6.1,9.66,10.241,15.862,11.406l.013,0a19.968,19.968,0,0,0,2.471.3v6.606c-.824.039-1.638.106-2.415.22-7.019,1.026-11.922,4.854-11.953,9.32,0,.015,0,.027,0,.039a1.167,1.167,0,0,0,.781,1.069,1.287,1.287,0,0,0,.491.093h28.743a1.4,1.4,0,0,0,.5-.091,1.163,1.163,0,0,0,.781-1.068c0-.016,0-.028,0-.04-.031-4.463-4.936-8.293-11.946-9.317-.781-.118-1.6-.181-2.422-.223v-6.606a19.853,19.853,0,0,0,2.471-.306l.013,0c6.2-1.165,11.855-5.306,15.862-11.406,5.9-.422,11.264-4.69,14.12-11.317a15.4,15.4,0,0,0,1.256-6.152l-.007-14.658a1.227,1.227,0,0,0-1.279-1.16Zm-65.085,21.118a13.272,13.272,0,0,1-1.079-5.3l0-13.5h8.145v16.594a23,23,0,0,0,1.871,9.159c.393.912.828,1.787,1.282,2.638-4.229-1-8.018-4.491-10.214-9.592Zm44.28,38.908H421.5c.84-2.789,4.631-5.179,9.64-5.913a22.941,22.941,0,0,1,6.564,0c5,.732,8.79,3.124,9.626,5.913Zm-9.683-17.6h-.007a17.444,17.444,0,0,1-6.454,0h-.007c-6.993-1.309-13.28-6.99-16.821-15.2a20.919,20.919,0,0,1-1.694-8.315l0-23.781h43.5v23.781a20.917,20.917,0,0,1-1.693,8.315c-3.541,8.209-9.83,13.89-16.822,15.2Zm29.213-26.607a13.314,13.314,0,0,1-1.08,5.3c-2.2,5.1-5.986,8.592-10.218,9.592.455-.855.891-1.726,1.283-2.638a23.008,23.008,0,0,0,1.869-9.159v-16.594h8.146Z" transform="translate(0 0)" fill="#040505"/>
  </g>
</svg>
