<svg xmlns="http://www.w3.org/2000/svg" width="76" height="59.945" viewBox="0 0 76 59.945">
  <g id="Group_180" data-name="Group 180" transform="translate(-591.093 -613.466)">
    <path id="Path_102" data-name="Path 102" d="M667.093,625.828a3.559,3.559,0,0,0-3.553-3.553H643.655v-5.252a3.56,3.56,0,0,0-3.553-3.557H618.085a3.561,3.561,0,0,0-3.554,3.557v5.252H594.647a3.558,3.558,0,0,0-3.554,3.553v44.033a3.555,3.555,0,0,0,3.554,3.55h68.892a3.555,3.555,0,0,0,3.553-3.55Zm-49.857-9.654h23.717v6.1H617.236Zm47.156,54.536H593.8V624.979h70.594Z" fill="#040505"/>
  </g>
</svg>
