<svg xmlns="http://www.w3.org/2000/svg" width="76.03" height="68.997" viewBox="0 0 76.03 68.997">
  <g id="Group_182" data-name="Group 182" transform="translate(-580.218 -995.103)">
    <path id="Path_105" data-name="Path 105" d="M606.018,1044.46H588.955a8.748,8.748,0,0,0-8.737,8.74v2.534h1.965V1053.2a6.78,6.78,0,0,1,6.773-6.773h17.063a6.779,6.779,0,0,1,6.773,6.773v2.534h1.966V1053.2A8.749,8.749,0,0,0,606.018,1044.46Z" transform="translate(0 8.366)" fill="#040505"/>
    <path id="Path_106" data-name="Path 106" d="M596.363,1044.921a9.514,9.514,0,1,0-9.514-9.515A9.525,9.525,0,0,0,596.363,1044.921Zm0-17.062a7.547,7.547,0,1,1-7.547,7.547A7.555,7.555,0,0,1,596.363,1027.859Z" transform="translate(1.124 5.219)" fill="#040505"/>
    <path id="Path_107" data-name="Path 107" d="M641.5,1044.46H624.434a8.749,8.749,0,0,0-8.738,8.74v2.534h1.966V1053.2a6.78,6.78,0,0,1,6.773-6.773H641.5a6.78,6.78,0,0,1,6.773,6.773v2.534h1.966V1053.2A8.749,8.749,0,0,0,641.5,1044.46Z" transform="translate(6.013 8.366)" fill="#040505"/>
    <path id="Path_108" data-name="Path 108" d="M622.326,1035.406a9.515,9.515,0,1,0,9.515-9.513A9.525,9.525,0,0,0,622.326,1035.406Zm9.515-7.547a7.547,7.547,0,1,1-7.547,7.547A7.555,7.555,0,0,1,631.841,1027.859Z" transform="translate(7.137 5.219)" fill="#040505"/>
    <path id="Path_109" data-name="Path 109" d="M600.018,1022.41a6.78,6.78,0,0,1,6.773-6.773h17.063a6.779,6.779,0,0,1,6.773,6.773v2.534h1.966v-2.534a8.749,8.749,0,0,0-8.738-8.74H606.79a8.747,8.747,0,0,0-8.736,8.74v2.534h1.964Z" transform="translate(3.023 3.147)" fill="#040505"/>
    <path id="Path_110" data-name="Path 110" d="M614.2,1014.131a9.514,9.514,0,1,0-9.513-9.515A9.525,9.525,0,0,0,614.2,1014.131Zm-7.547-9.515a7.547,7.547,0,1,1,7.547,7.548A7.556,7.556,0,0,1,606.651,1004.616Z" transform="translate(4.147)" fill="#040505"/>
  </g>
</svg>
