<svg xmlns="http://www.w3.org/2000/svg" width="111.515" height="75.054" viewBox="0 0 111.515 75.054">
  <path id="Path_99" data-name="Path 99" d="M-182.287,349.467a1.069,1.069,0,0,1-1.068-1.068,1.069,1.069,0,0,1,1.068-1.068h6.257l8.252-11.241a1.07,1.07,0,0,1,.859-.435l34.663,0,8.139-8.2h-10.354a1.069,1.069,0,0,1-1.068-1.068,1.069,1.069,0,0,1,1.068-1.068H-122l7.212-7.269a1.057,1.057,0,0,1,.757-.315,1.072,1.072,0,0,1,.756.311,1.06,1.06,0,0,1,.315.754,1.059,1.059,0,0,1-.311.756l-16.983,17.116,12.213,10.664h1.756l13.44-43.34-26.792-7.237a1.069,1.069,0,0,1-.647-.518,1.054,1.054,0,0,1-.094-.824,29.5,29.5,0,0,1,28.346-21,30.394,30.394,0,0,1,7.927,1.06A29.915,29.915,0,0,1-72.59,311.009a1.093,1.093,0,0,1-1.053.831,1.009,1.009,0,0,1-.265-.035l-19.938-5.382-.08-.076-.212,0-6.641-1.792-13.271,42.781h19a1.069,1.069,0,0,1,1.068,1.068,1.069,1.069,0,0,1-1.068,1.068Zm8.906-2.134h52.093l-10.926-9.545h-34.162ZM-91.5,280.022a27.466,27.466,0,0,1-.243,23.825l-.406.823,17.706,4.785.129-.833A27.837,27.837,0,0,0-90.5,279.014l-1.841-.82ZM-97,279.565A25.419,25.419,0,0,0-108.15,299.75l-.019.6,13.9,3.753.282-.532a25.547,25.547,0,0,0,.353-23.084l-1.168-2.4Zm-5.017-3a27.3,27.3,0,0,0-25.686,17.647l-.3.781,17.706,4.784.057-.924A27.312,27.312,0,0,1-98.617,278.1l1.638-1.15-1.989-.219A28.068,28.068,0,0,0-102.02,276.561Z" transform="translate(183.355 -274.413)" fill="#040505"/>
</svg>
