<svg id="Group_431" data-name="Group 431" xmlns="http://www.w3.org/2000/svg" width="370.076" height="70.413" viewBox="0 0 370.076 70.413">
  <g id="Group_427" data-name="Group 427">
    <g id="Group_424" data-name="Group 424">
      <path id="Path_226" data-name="Path 226" d="M-2.97,30.563a8.051,8.051,0,0,0,7.921,8.4c5.842,0,6.557-3.4,6.557-12.28,0-8.163-.9-12.274-6.139-12.274-4.946,0-8.34,4.885-8.34,9.235ZM-7.983-2.16h-4.11v-.955h4.11c1.908,0,3.815-.121,5.013-1.487V19.534h.114c1.074-2.806,3.932-6.08,8.225-6.08,7.153,0,11.86,7.389,11.86,13.229,0,6.973-4.825,13.231-12.278,13.231a8.793,8.793,0,0,1-7.807-5.063H-2.97V39.2h-9.123v-.955h4.11Z" transform="translate(12.093 4.602)" fill="#fff"/>
      <path id="Path_227" data-name="Path 227" d="M8.054,5.868H3.048V4.918H8.054c1.908,0,3.813-.123,5-1.314v7.035h.119c.717-2.682,2.806-7.035,7.69-7.035A3.633,3.633,0,0,1,24.8,7.12a2.608,2.608,0,0,1-2.739,2.8c-1.967,0-2.625-1.014-2.625-2.618a2.855,2.855,0,0,1,1.311-2.563,1.313,1.313,0,0,0-.832-.18c-2.447,0-6.859,3.873-6.859,11.625V28.4h5.426v.953H3.048V28.4H8.054Z" transform="translate(30.268 14.452)" fill="#fff"/>
      <path id="Path_228" data-name="Path 228" d="M33.543,14.514c0-5.189-.238-9.955-6.914-9.955s-6.914,4.766-6.914,9.955v4.643c0,5.186.24,9.957,6.914,9.957s6.914-4.77,6.914-9.957ZM26.629,3.6c7.69,0,12.635,6.377,12.635,13.229S34.32,30.064,26.629,30.064,14,23.687,14,16.833,18.939,3.6,26.629,3.6" transform="translate(43.411 14.452)" fill="#fff"/>
      <path id="Path_229" data-name="Path 229" d="M47.085,14.514c0-5.189-.238-9.955-6.909-9.955s-6.914,4.766-6.914,9.955v4.643c0,5.186.235,9.957,6.914,9.957s6.909-4.77,6.909-9.957ZM40.176,3.6c7.686,0,12.637,6.377,12.637,13.229S47.862,30.064,40.176,30.064,27.539,23.687,27.539,16.833,32.488,3.6,40.176,3.6" transform="translate(59.667 14.452)" fill="#fff"/>
      <path id="Path_230" data-name="Path 230" d="M45.113-2.16H40.4v-.955h4.709c1.908,0,3.818-.121,5.006-1.487V28.591l9.537-9.176c1.311-1.252,2.088-2.328,2.088-2.742,0-.656-.838-.955-2.687-.955H57.032v-.953H69.61v.953H67.522c-2.027,0-2.975.475-5,2.387L55.9,24.364l9.356,11.618c1.311,1.613,1.787,2.262,2.922,2.262h3.037V39.2H56.258v-.955h4.289L52.2,27.935,50.119,29.9v8.34h4.174V39.2H40.4v-.955h4.709Z" transform="translate(75.11 4.602)" fill="#fff"/>
      <path id="Path_231" data-name="Path 231" d="M60.341-2.16h-4.77v-.955h4.77c1.912,0,3.815-.121,5-1.487V38.244h4.773V39.2H55.571v-.955h4.77Z" transform="translate(93.317 4.602)" fill="#fff"/>
      <path id="Path_232" data-name="Path 232" d="M70.372-2.652A3.049,3.049,0,0,1,73.411.385a3.039,3.039,0,0,1-6.078,0,3.05,3.05,0,0,1,3.039-3.037m-2.5,16.03H63.1v-.951h4.766c1.91,0,3.815-.123,5.008-1.314V35.906h4.77v.953H63.1v-.953h4.766Z" transform="translate(102.357 6.943)" fill="#fff"/>
      <path id="Path_233" data-name="Path 233" d="M75.233,5.868H70.524V4.918h4.709c2.861,0,3.932,0,5-1.314v6.08h.121c1.553-2.861,4.531-6.08,8.883-6.08,6.375,0,8.166,3.219,8.166,6.735V28.4h4.707v.953H87.687V28.4H92.4V8.9c0-3.274-1.613-4.348-3.521-4.348-5,0-7.567,5.008-8.643,7.032V28.4h4.533v.953H70.524V28.4h4.709Z" transform="translate(111.266 14.452)" fill="#fff"/>
      <path id="Path_234" data-name="Path 234" d="M102.352,11.89c0-3.815-1.012-7.33-4.944-7.33-4.174,0-5.424,3.514-5.424,7.33v1.67h9.952a.378.378,0,0,0,.416-.42ZM91.983,20.11c-.062,4.234.535,9,6.137,9a9.429,9.429,0,0,0,9.537-8.225h.953c-.953,5.486-5,9.178-10.489,9.178-6.975,0-11.86-5.362-11.86-13.229C86.26,11.058,90.909,3.6,97.407,3.6c7.035,0,10.665,7.869,10.665,10.375a.477.477,0,0,1-.535.539H91.983Z" transform="translate(130.156 14.451)" fill="#fff"/>
      <path id="Path_235" data-name="Path 235" d="M-7.539,27.291a2.768,2.768,0,0,0,1.452.394A2.933,2.933,0,0,0-3,24.472C-3,22-4.137,20.919-6.388,20.919H-7.539Zm-1.93-6.372h-1.873v-.3h5.393c2.814,0,4.986.966,4.986,3.688,0,2.669-2.513,3.69-4.8,3.69a4.728,4.728,0,0,1-1.774-.323v5.954h1.925v.3h-5.728v-.3h1.873Z" transform="translate(12.996 34.872)" fill="#fff"/>
      <path id="Path_236" data-name="Path 236" d="M-4.432,20.615H1.3v.3H-.707v9.889A3.019,3.019,0,0,0,2.528,33.93c2.647,0,4.308-1.27,4.308-4.086V22.208c0-1.023-.317-1.289-1.153-1.289H4.627v-.3H9.01v.3H8.159c-.812,0-1.017.339-1.017,1.3v7.851c0,2.953-2.121,4.159-4.634,4.159-3.122,0-5.147-.739-5.147-3.745V20.919H-4.432Z" transform="translate(21.289 34.872)" fill="#fff"/>
      <path id="Path_237" data-name="Path 237" d="M7.217,33.624H8.806c1.985,0,3.043-1.23,3.043-3.439,0-2.119-1.457-3.173-3.609-3.173H7.217Zm0-6.92H8.463c1.725,0,3.254-.381,3.254-2.946,0-1-.757-2.839-3.518-2.839H7.217ZM5.29,20.919H3.49v-.3H9.259c2.817,0,4.388,1.419,4.388,2.953,0,2.889-2.44,3.155-3.8,3.29v.037c2.064.167,4.163,1.058,4.163,3.459,0,2.55-2.271,3.573-4.049,3.573H3.49v-.3h1.8Z" transform="translate(30.799 34.872)" fill="#fff"/>
      <path id="Path_238" data-name="Path 238" d="M12.478,20.919H10.59v-.3H16.3v.3H14.408V33.624h2.361c3.635,0,4.768-.473,4.768-4.044h.3v4.348H10.59v-.3h1.888Z" transform="translate(39.322 34.872)" fill="#fff"/>
    </g>
    <path id="Path_239" data-name="Path 239" d="M18.04,20.615v.306h1.719v12.7H18.04v.3h5.371v-.3H21.687v-12.7h1.724v-.306Z" transform="translate(48.265 34.872)" fill="#fff"/>
    <g id="Group_425" data-name="Group 425" transform="translate(76.779 55.184)">
      <path id="Path_240" data-name="Path 240" d="M33.236,25.093h-.3a4.357,4.357,0,0,0-4.161-4.313c-3.362,0-3.82,4.179-3.82,6.656s.458,6.658,3.82,6.658c2.385,0,4.161-2.348,4.161-4.711h.3v4.484h-.3c0-.381-.187-.946-.643-.946-.568,0-1.569,1.472-3.518,1.472-3.193,0-5.974-3.081-5.974-6.958s2.781-6.96,5.974-6.96c1.928,0,2.762,1.382,3.461,1.382.532,0,.7-.354.7-.812h.3Z" transform="translate(-22.8 -20.477)" fill="#fff"/>
      <path id="Path_241" data-name="Path 241" d="M38.326,26.935h.946c2.231,0,3.536-.781,3.536-2.973,0-1.512-.513-3.043-3.2-3.043H38.326ZM36.4,20.919H34.506v-.3h5.8c2.174,0,4.537.491,4.537,3.347,0,2.308-2.665,2.911-4.044,3.083v.035c2.174.194,3.327.667,3.613,3.158l.264,2.308c.132,1.116.658,1.195.981,1.195a2,2,0,0,0,.777-.189l.112.242A4.423,4.423,0,0,1,45,34.042c-2.3,0-2.438-1.23-2.7-3.406L42.161,29.5c-.128-1.19-.469-2.266-2.607-2.266H38.326v6.39h1.932v.3H34.506v-.3H36.4Z" transform="translate(-8.748 -20.311)" fill="#fff"/>
      <path id="Path_242" data-name="Path 242" d="M43.549,20.919H41.888v-.3H51.964L52.2,23.83h-.308c0-2.172-1.435-2.911-3.441-2.911H45.477v6.093H46.9c1.967,0,2.154-1.2,2.154-2.427h.306v5.032H49.05c0-1.439-.187-2.31-2.172-2.31h-1.4v6.317h2.592c3.063,0,4.539-.359,4.539-3.576h.3v3.879H41.888v-.3h1.661Z" transform="translate(0.113 -20.311)" fill="#fff"/>
      <path id="Path_243" data-name="Path 243" d="M51.3,20.919h-1.89v-.3h5.71v.3H53.226V33.624h2.361c3.635,0,4.768-.473,4.768-4.044h.3v4.348H49.408v-.3H51.3Z" transform="translate(9.14 -20.311)" fill="#fff"/>
      <path id="Path_244" data-name="Path 244" d="M61.873,23.749h-.04l-1.855,5.732h3.84Zm2.044,6.033H59.868l-.775,2.381a4.06,4.06,0,0,0-.284,1.151c0,.268.227.475.83.475h.986V34.1h-3.9v-.306h.6c.59,0,.836-.053,1.193-1.113l4.066-12.2H62.8l4.6,13.312h1.567V34.1H63.426v-.306h1.848Z" transform="translate(17.927 -20.477)" fill="#fff"/>
      <path id="Path_245" data-name="Path 245" d="M68.521,20.919h-.4c-3.36,0-4.121.51-4.121,3.611h-.3V20.615H75.27V24.53h-.3c0-3.1-.755-3.611-4.1-3.611h-.416V33.624H72.4v.3H66.572v-.3h1.95Z" transform="translate(26.294 -20.311)" fill="#fff"/>
    </g>
    <path id="Path_246" data-name="Path 246" d="M71.131,20.615v.306h1.721v12.7H71.131v.3H76.5v-.3H74.78v-12.7H76.5v-.306Z" transform="translate(111.995 34.872)" fill="#fff"/>
    <g id="Group_426" data-name="Group 426" transform="translate(193.602 55.182)">
      <path id="Path_247" data-name="Path 247" d="M81.866,34.1c3.364,0,3.818-4.183,3.818-6.658s-.453-6.656-3.818-6.656-3.818,4.179-3.818,6.656S78.5,34.1,81.866,34.1m0-13.62c3.195,0,5.978,3.085,5.978,6.962s-2.784,6.96-5.978,6.96-5.974-3.083-5.974-6.96,2.779-6.962,5.974-6.962" transform="translate(-75.892 -20.476)" fill="#fff"/>
      <path id="Path_248" data-name="Path 248" d="M85.673,21.524h-.042V32.546c0,.911.3,1.078,1.171,1.078h.761v.3H83.514v-.3h.643c.871,0,1.175-.167,1.175-1.078V20.921H83.514v-.306h3.972l7.147,9.871h.035V21.94c0-.772-.15-1.019-.981-1.019H92.8v-.306h3.989v.306h-.83c-.836,0-.986.246-.986,1.019v12.1h-.242Z" transform="translate(-66.743 -20.309)" fill="#fff"/>
      <path id="Path_249" data-name="Path 249" d="M91.815,29.421h.3c0,3.182,1.87,4.674,4.139,4.674a2.864,2.864,0,0,0,3.12-2.854c0-1.969-1.019-2.555-3.193-2.9-2.971-.471-4.37-.964-4.37-4.139a3.48,3.48,0,0,1,3.536-3.73c1.95,0,2.684,1.151,3.327,1.151.436,0,.5-.466.548-.711h.3v3.97h-.3c-.167-2.154-1.342-4.106-3.875-4.106a2.606,2.606,0,0,0-2.739,2.8c0,1.7.638,2.077,3.778,2.651,2.762.488,3.9,1.375,3.9,3.837s-1.364,4.328-4.1,4.328c-1.892,0-2.9-.984-3.593-.984-.458,0-.473.473-.473.794h-.3Z" transform="translate(-56.778 -20.476)" fill="#fff"/>
    </g>
  </g>
  <g id="Group_430" data-name="Group 430" transform="translate(268.849 1.976)">
    <g id="Group_428" data-name="Group 428" transform="translate(0)">
      <path id="Path_250" data-name="Path 250" d="M124.359,8.033l-11.829,3.285-2.44-9.389L127.831-3.7h7.981V62.484H124.359Z" transform="translate(-110.089 3.704)" fill="#fff"/>
      <path id="Path_251" data-name="Path 251" d="M125.32,53.309l7.134-8.357c5.259,4.883,10.8,7.888,16.9,7.888,7.884,0,13.048-4.506,13.048-11.361v-.187c0-6.667-5.633-10.892-13.614-10.892a28.07,28.07,0,0,0-12.111,2.911l-6.947-4.6,1.879-32.2h39.337V6.744H141.561l-1.032,15.4a27.934,27.934,0,0,1,10.421-1.879c12.767,0,22.906,6.76,22.906,20.655V41.1c0,13.427-9.858,22.25-24.409,22.25A33.68,33.68,0,0,1,125.32,53.309Z" transform="translate(-91.806 3.961)" fill="#fff"/>
    </g>
    <g id="Group_429" data-name="Group 429" transform="translate(91.62 0.196)">
      <path id="Path_252" data-name="Path 252" d="M155.159,1.765l-3.281-5.38h2.715l1.769,3.133,1.782-3.133h2.665L157.542,1.73V4.984h-2.383Z" transform="translate(-151.546 3.615)" fill="#fff"/>
      <path id="Path_253" data-name="Path 253" d="M152.389,3.085H159.3V5.1h-4.557V6.414h4.128V8.293h-4.128V9.658h4.619v2.027h-6.977Z" transform="translate(-150.932 11.658)" fill="#fff"/>
      <path id="Path_254" data-name="Path 254" d="M155.375,9.757h2.3l3.661,8.661h-2.555l-.614-1.547h-3.329l-.616,1.547h-2.493Zm2.088,5.259-.957-2.431-.97,2.431Z" transform="translate(-151.727 19.667)" fill="#fff"/>
      <path id="Path_255" data-name="Path 255" d="M152.246,16.485h4.066a3.808,3.808,0,0,1,2.8.922,2.686,2.686,0,0,1,.764,2v.024a2.726,2.726,0,0,1-1.769,2.654l2.051,3h-2.739l-1.732-2.6h-1.056v2.6h-2.385Zm3.969,4.128c.8,0,1.278-.392,1.278-1.019V19.57c0-.689-.5-1.032-1.292-1.032h-1.571v2.075Z" transform="translate(-151.104 27.743)" fill="#fff"/>
      <path id="Path_256" data-name="Path 256" d="M152.138,30.588,153.465,29a4.456,4.456,0,0,0,2.788,1.032c.651,0,1-.222,1-.59v-.024c0-.37-.284-.554-1.463-.836-1.831-.418-3.243-.933-3.243-2.691v-.024c0-1.6,1.265-2.753,3.329-2.753a5.409,5.409,0,0,1,3.538,1.144l-1.193,1.681a4.231,4.231,0,0,0-2.407-.847c-.577,0-.858.233-.858.552v.026c0,.392.293.566,1.5.834,1.967.431,3.195,1.069,3.195,2.678v.026c0,1.756-1.388,2.8-3.477,2.8A6.03,6.03,0,0,1,152.138,30.588Z" transform="translate(-151.234 35.705)" fill="#fff"/>
    </g>
  </g>
  <rect id="Rectangle_152" data-name="Rectangle 152" width="1.638" height="69.593" transform="translate(256.675 0.82)" fill="#fff"/>
</svg>
