<svg xmlns="http://www.w3.org/2000/svg" width="101.285" height="30.363" viewBox="0 0 101.285 30.363">
  <g id="Group_72" data-name="Group 72" transform="translate(-96 -401)">
    <text id="podcast" transform="translate(106.875 420.87)" fill="#212121" font-size="13" font-family="Soleil-Bold, Soleil" font-weight="700" letter-spacing="0.05em"><tspan x="0" y="0">PODCAST</tspan></text>
    <g id="Rectangle_24" data-name="Rectangle 24" transform="translate(96 401)" fill="none" stroke="#212121" stroke-width="2">
      <rect width="101.285" height="30.363" stroke="none"/>
      <rect x="1" y="1" width="99.285" height="28.363" fill="none"/>
    </g>
    <g id="Group_73" data-name="Group 73" transform="translate(1629.012 -704.869)">
      <path id="Path_32" data-name="Path 32" d="M-1442.842,1124.391h-.629a7.034,7.034,0,0,0-7.026-7.026v-.629A7.664,7.664,0,0,1-1442.842,1124.391Z" transform="translate(-0.352)" fill="#fff" stroke="#212121" stroke-width="1"/>
      <circle id="Ellipse_15" data-name="Ellipse 15" cx="0.538" cy="0.538" r="0.538" transform="translate(-1450.869 1123.336)" fill="#fff" stroke="#212121" stroke-width="1"/>
      <path id="Path_33" data-name="Path 33" d="M-1445.955,1177h-.609a3.938,3.938,0,0,0-3.933-3.933v-.609A4.547,4.547,0,0,1-1445.955,1177Z" transform="translate(-0.352 -52.608)" fill="#fff" stroke="#212121" stroke-width="1"/>
    </g>
  </g>
</svg>
